<svg width="402" height="874" viewBox="0 0 402 874" fill="none" xmlns="http://www.w3.org/2000/svg">
<g clip-path="url(#clip0_165_4319)">
<rect width="402" height="874" fill="white"/>
<rect x="54" y="600" width="280" height="48" rx="12" fill="#00757F"/>
<path d="M133.761 618.364H135.523V626.017C135.523 626.831 135.331 627.553 134.949 628.182C134.566 628.807 134.028 629.299 133.335 629.659C132.642 630.015 131.83 630.193 130.898 630.193C129.97 630.193 129.159 630.015 128.466 629.659C127.773 629.299 127.235 628.807 126.852 628.182C126.47 627.553 126.278 626.831 126.278 626.017V618.364H128.034V625.875C128.034 626.402 128.15 626.869 128.381 627.278C128.616 627.688 128.947 628.009 129.375 628.244C129.803 628.475 130.311 628.591 130.898 628.591C131.489 628.591 131.998 628.475 132.426 628.244C132.858 628.009 133.188 627.688 133.415 627.278C133.646 626.869 133.761 626.402 133.761 625.875V618.364ZM144.479 623.403L142.939 623.676C142.875 623.479 142.772 623.292 142.632 623.114C142.496 622.936 142.31 622.79 142.075 622.676C141.84 622.562 141.547 622.506 141.195 622.506C140.714 622.506 140.312 622.614 139.99 622.83C139.668 623.042 139.507 623.316 139.507 623.653C139.507 623.945 139.615 624.18 139.831 624.358C140.047 624.536 140.395 624.682 140.876 624.795L142.263 625.114C143.066 625.299 143.664 625.585 144.058 625.972C144.452 626.358 144.649 626.86 144.649 627.477C144.649 628 144.498 628.466 144.195 628.875C143.895 629.28 143.477 629.598 142.939 629.83C142.405 630.061 141.786 630.176 141.081 630.176C140.104 630.176 139.306 629.968 138.689 629.551C138.071 629.131 137.693 628.534 137.553 627.761L139.195 627.511C139.297 627.939 139.507 628.263 139.825 628.483C140.143 628.699 140.558 628.807 141.07 628.807C141.626 628.807 142.071 628.691 142.405 628.46C142.738 628.225 142.905 627.939 142.905 627.602C142.905 627.33 142.803 627.1 142.598 626.915C142.397 626.729 142.089 626.589 141.672 626.494L140.195 626.17C139.38 625.985 138.778 625.689 138.388 625.284C138.001 624.879 137.808 624.366 137.808 623.744C137.808 623.229 137.952 622.778 138.24 622.392C138.528 622.006 138.926 621.705 139.433 621.489C139.941 621.269 140.522 621.159 141.178 621.159C142.121 621.159 142.863 621.364 143.405 621.773C143.946 622.178 144.304 622.722 144.479 623.403ZM150.278 630.176C149.419 630.176 148.678 629.992 148.057 629.625C147.439 629.254 146.962 628.733 146.625 628.062C146.292 627.388 146.125 626.598 146.125 625.693C146.125 624.799 146.292 624.011 146.625 623.33C146.962 622.648 147.432 622.116 148.034 621.733C148.64 621.35 149.348 621.159 150.159 621.159C150.652 621.159 151.129 621.241 151.591 621.403C152.053 621.566 152.468 621.822 152.835 622.17C153.203 622.519 153.492 622.972 153.705 623.528C153.917 624.081 154.023 624.754 154.023 625.545V626.148H147.085V624.875H152.358C152.358 624.428 152.267 624.032 152.085 623.688C151.903 623.339 151.648 623.064 151.318 622.864C150.992 622.663 150.61 622.562 150.17 622.562C149.693 622.562 149.277 622.68 148.92 622.915C148.568 623.146 148.295 623.449 148.102 623.824C147.913 624.195 147.818 624.598 147.818 625.034V626.028C147.818 626.612 147.92 627.108 148.125 627.517C148.333 627.926 148.623 628.239 148.994 628.455C149.366 628.667 149.799 628.773 150.295 628.773C150.617 628.773 150.911 628.727 151.176 628.636C151.441 628.542 151.67 628.402 151.864 628.216C152.057 628.03 152.205 627.801 152.307 627.528L153.915 627.818C153.786 628.292 153.555 628.706 153.222 629.062C152.892 629.415 152.477 629.689 151.977 629.886C151.481 630.08 150.915 630.176 150.278 630.176ZM161.261 630H159.398L163.585 618.364H165.614L169.801 630H167.938L164.648 620.477H164.557L161.261 630ZM161.574 625.443H167.619V626.92H161.574V625.443ZM173.044 624.818V630H171.345V621.273H172.976V622.693H173.084C173.285 622.231 173.599 621.86 174.027 621.58C174.459 621.299 175.002 621.159 175.658 621.159C176.252 621.159 176.773 621.284 177.22 621.534C177.667 621.78 178.014 622.148 178.26 622.636C178.506 623.125 178.629 623.729 178.629 624.449V630H176.93V624.653C176.93 624.021 176.766 623.527 176.436 623.17C176.107 622.811 175.654 622.631 175.078 622.631C174.684 622.631 174.334 622.716 174.027 622.886C173.724 623.057 173.483 623.307 173.305 623.636C173.131 623.962 173.044 624.356 173.044 624.818ZM184.584 630.176C183.766 630.176 183.052 629.989 182.442 629.614C181.832 629.239 181.358 628.714 181.021 628.04C180.684 627.366 180.516 626.578 180.516 625.676C180.516 624.771 180.684 623.979 181.021 623.301C181.358 622.623 181.832 622.097 182.442 621.722C183.052 621.347 183.766 621.159 184.584 621.159C185.402 621.159 186.116 621.347 186.726 621.722C187.336 622.097 187.809 622.623 188.146 623.301C188.483 623.979 188.652 624.771 188.652 625.676C188.652 626.578 188.483 627.366 188.146 628.04C187.809 628.714 187.336 629.239 186.726 629.614C186.116 629.989 185.402 630.176 184.584 630.176ZM184.589 628.75C185.12 628.75 185.559 628.61 185.908 628.33C186.256 628.049 186.514 627.676 186.68 627.21C186.851 626.744 186.936 626.231 186.936 625.67C186.936 625.114 186.851 624.602 186.68 624.136C186.514 623.667 186.256 623.29 185.908 623.006C185.559 622.722 185.12 622.58 184.589 622.58C184.055 622.58 183.612 622.722 183.26 623.006C182.911 623.29 182.652 623.667 182.482 624.136C182.315 624.602 182.232 625.114 182.232 625.67C182.232 626.231 182.315 626.744 182.482 627.21C182.652 627.676 182.911 628.049 183.26 628.33C183.612 628.61 184.055 628.75 184.589 628.75ZM192.247 624.818V630H190.548V621.273H192.179V622.693H192.287C192.488 622.231 192.802 621.86 193.23 621.58C193.662 621.299 194.205 621.159 194.861 621.159C195.455 621.159 195.976 621.284 196.423 621.534C196.87 621.78 197.217 622.148 197.463 622.636C197.709 623.125 197.832 623.729 197.832 624.449V630H196.134V624.653C196.134 624.021 195.969 623.527 195.639 623.17C195.31 622.811 194.857 622.631 194.281 622.631C193.887 622.631 193.537 622.716 193.23 622.886C192.927 623.057 192.687 623.307 192.509 623.636C192.334 623.962 192.247 624.356 192.247 624.818ZM200.872 633.273C200.618 633.273 200.387 633.252 200.179 633.21C199.971 633.172 199.815 633.131 199.713 633.085L200.122 631.693C200.433 631.777 200.709 631.813 200.952 631.801C201.194 631.79 201.408 631.699 201.594 631.528C201.783 631.358 201.95 631.08 202.094 630.693L202.304 630.114L199.111 621.273H200.929L203.139 628.045H203.23L205.44 621.273H207.264L203.668 631.165C203.501 631.619 203.289 632.004 203.031 632.318C202.774 632.636 202.467 632.875 202.111 633.034C201.755 633.193 201.342 633.273 200.872 633.273ZM208.861 630V621.273H210.491V622.693H210.599C210.781 622.212 211.079 621.837 211.491 621.568C211.904 621.295 212.399 621.159 212.974 621.159C213.558 621.159 214.046 621.295 214.44 621.568C214.838 621.841 215.132 622.216 215.321 622.693H215.412C215.62 622.227 215.952 621.856 216.406 621.58C216.861 621.299 217.402 621.159 218.031 621.159C218.823 621.159 219.469 621.407 219.969 621.903C220.473 622.4 220.724 623.148 220.724 624.148V630H219.026V624.307C219.026 623.716 218.865 623.288 218.543 623.023C218.221 622.758 217.836 622.625 217.389 622.625C216.836 622.625 216.406 622.795 216.099 623.136C215.793 623.473 215.639 623.907 215.639 624.438V630H213.946V624.199C213.946 623.725 213.798 623.345 213.503 623.057C213.207 622.769 212.823 622.625 212.349 622.625C212.027 622.625 211.73 622.71 211.457 622.881C211.188 623.047 210.971 623.28 210.804 623.58C210.641 623.879 210.56 624.225 210.56 624.619V630H208.861ZM226.678 630.176C225.859 630.176 225.145 629.989 224.536 629.614C223.926 629.239 223.452 628.714 223.115 628.04C222.778 627.366 222.609 626.578 222.609 625.676C222.609 624.771 222.778 623.979 223.115 623.301C223.452 622.623 223.926 622.097 224.536 621.722C225.145 621.347 225.859 621.159 226.678 621.159C227.496 621.159 228.21 621.347 228.82 621.722C229.429 622.097 229.903 622.623 230.24 623.301C230.577 623.979 230.746 624.771 230.746 625.676C230.746 626.578 230.577 627.366 230.24 628.04C229.903 628.714 229.429 629.239 228.82 629.614C228.21 629.989 227.496 630.176 226.678 630.176ZM226.683 628.75C227.214 628.75 227.653 628.61 228.001 628.33C228.35 628.049 228.607 627.676 228.774 627.21C228.945 626.744 229.03 626.231 229.03 625.67C229.03 625.114 228.945 624.602 228.774 624.136C228.607 623.667 228.35 623.29 228.001 623.006C227.653 622.722 227.214 622.58 226.683 622.58C226.149 622.58 225.706 622.722 225.354 623.006C225.005 623.29 224.746 623.667 224.575 624.136C224.409 624.602 224.325 625.114 224.325 625.67C224.325 626.231 224.409 626.744 224.575 627.21C224.746 627.676 225.005 628.049 225.354 628.33C225.706 628.61 226.149 628.75 226.683 628.75ZM238.17 626.381V621.273H239.875V630H238.205V628.489H238.114C237.913 628.955 237.591 629.343 237.148 629.653C236.708 629.96 236.161 630.114 235.506 630.114C234.945 630.114 234.449 629.991 234.017 629.744C233.589 629.494 233.252 629.125 233.006 628.636C232.763 628.148 232.642 627.544 232.642 626.824V621.273H234.341V626.619C234.341 627.214 234.506 627.687 234.835 628.04C235.165 628.392 235.593 628.568 236.119 628.568C236.438 628.568 236.754 628.489 237.068 628.33C237.386 628.17 237.65 627.93 237.858 627.608C238.07 627.286 238.174 626.877 238.17 626.381ZM248.697 623.403L247.158 623.676C247.093 623.479 246.991 623.292 246.851 623.114C246.714 622.936 246.529 622.79 246.294 622.676C246.059 622.562 245.766 622.506 245.413 622.506C244.932 622.506 244.531 622.614 244.209 622.83C243.887 623.042 243.726 623.316 243.726 623.653C243.726 623.945 243.834 624.18 244.05 624.358C244.266 624.536 244.614 624.682 245.095 624.795L246.482 625.114C247.285 625.299 247.883 625.585 248.277 625.972C248.671 626.358 248.868 626.86 248.868 627.477C248.868 628 248.716 628.466 248.413 628.875C248.114 629.28 247.696 629.598 247.158 629.83C246.624 630.061 246.004 630.176 245.3 630.176C244.322 630.176 243.525 629.968 242.908 629.551C242.29 629.131 241.911 628.534 241.771 627.761L243.413 627.511C243.516 627.939 243.726 628.263 244.044 628.483C244.362 628.699 244.777 628.807 245.288 628.807C245.845 628.807 246.29 628.691 246.624 628.46C246.957 628.225 247.124 627.939 247.124 627.602C247.124 627.33 247.021 627.1 246.817 626.915C246.616 626.729 246.307 626.589 245.891 626.494L244.413 626.17C243.599 625.985 242.997 625.689 242.607 625.284C242.22 624.879 242.027 624.366 242.027 623.744C242.027 623.229 242.171 622.778 242.459 622.392C242.747 622.006 243.144 621.705 243.652 621.489C244.16 621.269 244.741 621.159 245.396 621.159C246.339 621.159 247.082 621.364 247.624 621.773C248.165 622.178 248.523 622.722 248.697 623.403ZM252.435 618.364V630H250.736V618.364H252.435ZM255.794 633.273C255.54 633.273 255.309 633.252 255.101 633.21C254.893 633.172 254.737 633.131 254.635 633.085L255.044 631.693C255.355 631.777 255.631 631.813 255.874 631.801C256.116 631.79 256.33 631.699 256.516 631.528C256.705 631.358 256.872 631.08 257.016 630.693L257.226 630.114L254.033 621.273H255.851L258.061 628.045H258.152L260.362 621.273H262.186L258.589 631.165C258.423 631.619 258.211 632.004 257.953 632.318C257.696 632.636 257.389 632.875 257.033 633.034C256.677 633.193 256.264 633.273 255.794 633.273Z" fill="white"/>
<rect x="54.5" y="678.5" width="279" height="47" rx="11.5" stroke="#D1D5DB"/>
<path d="M134.778 708V696.364H136.534V706.489H141.807V708H134.778ZM147.349 708.176C146.531 708.176 145.817 707.989 145.207 707.614C144.598 707.239 144.124 706.714 143.787 706.04C143.45 705.366 143.281 704.578 143.281 703.676C143.281 702.771 143.45 701.979 143.787 701.301C144.124 700.623 144.598 700.097 145.207 699.722C145.817 699.347 146.531 699.159 147.349 699.159C148.168 699.159 148.882 699.347 149.491 699.722C150.101 700.097 150.575 700.623 150.912 701.301C151.249 701.979 151.418 702.771 151.418 703.676C151.418 704.578 151.249 705.366 150.912 706.04C150.575 706.714 150.101 707.239 149.491 707.614C148.882 707.989 148.168 708.176 147.349 708.176ZM147.355 706.75C147.885 706.75 148.325 706.61 148.673 706.33C149.022 706.049 149.279 705.676 149.446 705.21C149.616 704.744 149.702 704.231 149.702 703.67C149.702 703.114 149.616 702.602 149.446 702.136C149.279 701.667 149.022 701.29 148.673 701.006C148.325 700.722 147.885 700.58 147.355 700.58C146.821 700.58 146.378 700.722 146.026 701.006C145.677 701.29 145.418 701.667 145.247 702.136C145.08 702.602 144.997 703.114 144.997 703.67C144.997 704.231 145.08 704.744 145.247 705.21C145.418 705.676 145.677 706.049 146.026 706.33C146.378 706.61 146.821 706.75 147.355 706.75ZM156.973 711.455C156.28 711.455 155.683 711.364 155.183 711.182C154.687 711 154.282 710.759 153.967 710.46C153.653 710.161 153.418 709.833 153.263 709.477L154.723 708.875C154.825 709.042 154.962 709.218 155.132 709.403C155.306 709.593 155.541 709.754 155.837 709.886C156.136 710.019 156.52 710.085 156.99 710.085C157.634 710.085 158.166 709.928 158.587 709.614C159.007 709.303 159.217 708.807 159.217 708.125V706.409H159.109C159.007 706.595 158.859 706.801 158.666 707.028C158.477 707.256 158.215 707.453 157.882 707.619C157.549 707.786 157.115 707.869 156.581 707.869C155.892 707.869 155.27 707.708 154.717 707.386C154.168 707.061 153.732 706.581 153.411 705.949C153.092 705.312 152.933 704.53 152.933 703.602C152.933 702.674 153.09 701.879 153.405 701.216C153.723 700.553 154.159 700.045 154.712 699.693C155.265 699.337 155.892 699.159 156.592 699.159C157.134 699.159 157.571 699.25 157.905 699.432C158.238 699.61 158.498 699.818 158.683 700.057C158.873 700.295 159.018 700.506 159.121 700.688H159.246V699.273H160.911V708.193C160.911 708.943 160.736 709.559 160.388 710.04C160.039 710.521 159.568 710.877 158.973 711.108C158.382 711.339 157.715 711.455 156.973 711.455ZM156.956 706.46C157.445 706.46 157.857 706.347 158.195 706.119C158.536 705.888 158.793 705.559 158.967 705.131C159.145 704.699 159.234 704.182 159.234 703.58C159.234 702.992 159.147 702.475 158.973 702.028C158.799 701.581 158.543 701.233 158.206 700.983C157.869 700.729 157.452 700.602 156.956 700.602C156.445 700.602 156.018 700.735 155.678 701C155.337 701.261 155.079 701.617 154.905 702.068C154.734 702.519 154.649 703.023 154.649 703.58C154.649 704.152 154.736 704.653 154.911 705.085C155.085 705.517 155.342 705.854 155.683 706.097C156.028 706.339 156.452 706.46 156.956 706.46ZM169.315 696.364V708H167.56V696.364H169.315ZM173.435 702.818V708H171.736V699.273H173.366V700.693H173.474C173.675 700.231 173.99 699.86 174.418 699.58C174.849 699.299 175.393 699.159 176.048 699.159C176.643 699.159 177.164 699.284 177.611 699.534C178.058 699.78 178.404 700.148 178.651 700.636C178.897 701.125 179.02 701.729 179.02 702.449V708H177.321V702.653C177.321 702.021 177.156 701.527 176.827 701.17C176.497 700.811 176.045 700.631 175.469 700.631C175.075 700.631 174.724 700.716 174.418 700.886C174.115 701.057 173.874 701.307 173.696 701.636C173.522 701.962 173.435 702.356 173.435 702.818ZM189.964 695.818L186.214 709.75H184.697L188.447 695.818H189.964ZM202.125 699.42C202.064 698.883 201.814 698.466 201.375 698.17C200.936 697.871 200.383 697.722 199.716 697.722C199.239 697.722 198.826 697.797 198.477 697.949C198.129 698.097 197.858 698.301 197.665 698.562C197.475 698.82 197.381 699.114 197.381 699.443C197.381 699.72 197.445 699.958 197.574 700.159C197.706 700.36 197.879 700.528 198.091 700.665C198.307 700.797 198.538 700.909 198.784 701C199.03 701.087 199.267 701.159 199.494 701.216L200.631 701.511C201.002 701.602 201.383 701.725 201.773 701.881C202.163 702.036 202.525 702.241 202.858 702.494C203.191 702.748 203.46 703.062 203.665 703.438C203.873 703.812 203.977 704.261 203.977 704.784C203.977 705.443 203.807 706.028 203.466 706.54C203.129 707.051 202.638 707.455 201.994 707.75C201.354 708.045 200.58 708.193 199.67 708.193C198.799 708.193 198.045 708.055 197.409 707.778C196.773 707.502 196.275 707.11 195.915 706.602C195.555 706.091 195.356 705.485 195.318 704.784H197.08C197.114 705.205 197.25 705.555 197.489 705.835C197.731 706.112 198.04 706.318 198.415 706.455C198.794 706.587 199.208 706.653 199.659 706.653C200.155 706.653 200.597 706.576 200.983 706.42C201.373 706.261 201.68 706.042 201.903 705.761C202.127 705.477 202.239 705.146 202.239 704.767C202.239 704.422 202.14 704.14 201.943 703.92C201.75 703.701 201.487 703.519 201.153 703.375C200.824 703.231 200.451 703.104 200.034 702.994L198.659 702.619C197.727 702.366 196.989 701.992 196.443 701.5C195.902 701.008 195.631 700.356 195.631 699.545C195.631 698.875 195.813 698.29 196.176 697.79C196.54 697.29 197.032 696.902 197.653 696.625C198.275 696.345 198.975 696.205 199.756 696.205C200.544 696.205 201.239 696.343 201.841 696.619C202.447 696.896 202.924 697.277 203.273 697.761C203.621 698.242 203.803 698.795 203.818 699.42H202.125ZM205.939 708V699.273H207.638V708H205.939ZM206.797 697.926C206.501 697.926 206.248 697.828 206.036 697.631C205.827 697.43 205.723 697.191 205.723 696.915C205.723 696.634 205.827 696.396 206.036 696.199C206.248 695.998 206.501 695.898 206.797 695.898C207.092 695.898 207.344 695.998 207.553 696.199C207.765 696.396 207.871 696.634 207.871 696.915C207.871 697.191 207.765 697.43 207.553 697.631C207.344 697.828 207.092 697.926 206.797 697.926ZM213.582 711.455C212.889 711.455 212.293 711.364 211.793 711.182C211.296 711 210.891 710.759 210.577 710.46C210.262 710.161 210.027 709.833 209.872 709.477L211.332 708.875C211.435 709.042 211.571 709.218 211.741 709.403C211.916 709.593 212.151 709.754 212.446 709.886C212.745 710.019 213.13 710.085 213.599 710.085C214.243 710.085 214.776 709.928 215.196 709.614C215.616 709.303 215.827 708.807 215.827 708.125V706.409H215.719C215.616 706.595 215.469 706.801 215.276 707.028C215.086 707.256 214.825 707.453 214.491 707.619C214.158 707.786 213.724 707.869 213.19 707.869C212.501 707.869 211.88 707.708 211.327 707.386C210.777 707.061 210.342 706.581 210.02 705.949C209.702 705.312 209.543 704.53 209.543 703.602C209.543 702.674 209.7 701.879 210.014 701.216C210.332 700.553 210.768 700.045 211.321 699.693C211.874 699.337 212.501 699.159 213.202 699.159C213.743 699.159 214.181 699.25 214.514 699.432C214.848 699.61 215.107 699.818 215.293 700.057C215.482 700.295 215.628 700.506 215.73 700.688H215.855V699.273H217.52V708.193C217.52 708.943 217.346 709.559 216.997 710.04C216.649 710.521 216.177 710.877 215.582 711.108C214.991 711.339 214.325 711.455 213.582 711.455ZM213.565 706.46C214.054 706.46 214.467 706.347 214.804 706.119C215.145 705.888 215.402 705.559 215.577 705.131C215.755 704.699 215.844 704.182 215.844 703.58C215.844 702.992 215.757 702.475 215.582 702.028C215.408 701.581 215.152 701.233 214.815 700.983C214.478 700.729 214.062 700.602 213.565 700.602C213.054 700.602 212.628 700.735 212.287 701C211.946 701.261 211.688 701.617 211.514 702.068C211.344 702.519 211.259 703.023 211.259 703.58C211.259 704.152 211.346 704.653 211.52 705.085C211.694 705.517 211.952 705.854 212.293 706.097C212.637 706.339 213.062 706.46 213.565 706.46ZM221.497 702.818V708H219.798V699.273H221.429V700.693H221.537C221.738 700.231 222.052 699.86 222.48 699.58C222.912 699.299 223.455 699.159 224.111 699.159C224.705 699.159 225.226 699.284 225.673 699.534C226.12 699.78 226.467 700.148 226.713 700.636C226.959 701.125 227.082 701.729 227.082 702.449V708H225.384V702.653C225.384 702.021 225.219 701.527 224.889 701.17C224.56 700.811 224.107 700.631 223.531 700.631C223.137 700.631 222.787 700.716 222.48 700.886C222.177 701.057 221.937 701.307 221.759 701.636C221.584 701.962 221.497 702.356 221.497 702.818ZM241.214 696.364H242.976V704.017C242.976 704.831 242.785 705.553 242.402 706.182C242.019 706.807 241.482 707.299 240.788 707.659C240.095 708.015 239.283 708.193 238.351 708.193C237.423 708.193 236.612 708.015 235.919 707.659C235.226 707.299 234.688 706.807 234.305 706.182C233.923 705.553 233.732 704.831 233.732 704.017V696.364H235.487V703.875C235.487 704.402 235.603 704.869 235.834 705.278C236.069 705.688 236.4 706.009 236.828 706.244C237.256 706.475 237.764 706.591 238.351 706.591C238.942 706.591 239.451 706.475 239.879 706.244C240.311 706.009 240.641 705.688 240.868 705.278C241.099 704.869 241.214 704.402 241.214 703.875V696.364ZM245.392 711.273V699.273H247.051V700.688H247.193C247.292 700.506 247.434 700.295 247.619 700.057C247.805 699.818 248.063 699.61 248.392 699.432C248.722 699.25 249.157 699.159 249.699 699.159C250.403 699.159 251.032 699.337 251.585 699.693C252.138 700.049 252.572 700.562 252.886 701.233C253.205 701.903 253.364 702.71 253.364 703.653C253.364 704.597 253.206 705.405 252.892 706.08C252.578 706.75 252.146 707.267 251.597 707.631C251.047 707.991 250.42 708.17 249.716 708.17C249.186 708.17 248.752 708.081 248.415 707.903C248.081 707.725 247.82 707.517 247.631 707.278C247.441 707.04 247.295 706.828 247.193 706.642H247.091V711.273H245.392ZM247.057 703.636C247.057 704.25 247.146 704.788 247.324 705.25C247.502 705.712 247.759 706.074 248.097 706.335C248.434 706.593 248.847 706.722 249.335 706.722C249.843 706.722 250.267 706.587 250.608 706.318C250.949 706.045 251.206 705.676 251.381 705.21C251.559 704.744 251.648 704.22 251.648 703.636C251.648 703.061 251.561 702.544 251.386 702.085C251.216 701.627 250.958 701.265 250.614 701C250.273 700.735 249.847 700.602 249.335 700.602C248.843 700.602 248.426 700.729 248.085 700.983C247.748 701.237 247.492 701.591 247.318 702.045C247.144 702.5 247.057 703.03 247.057 703.636Z" fill="#4E5A65"/>
<path d="M73.446 462L68.4517 444.545H72.483L75.3722 456.673H75.517L78.7045 444.545H82.1562L85.3352 456.699H85.4886L88.3778 444.545H92.4091L87.4148 462H83.8182L80.4943 450.588H80.358L77.0426 462H73.446ZM98.8757 462.256C97.5291 462.256 96.37 461.983 95.3984 461.438C94.4325 460.886 93.6882 460.108 93.1655 459.102C92.6428 458.091 92.3814 456.895 92.3814 455.514C92.3814 454.168 92.6428 452.986 93.1655 451.969C93.6882 450.952 94.424 450.159 95.3729 449.591C96.3274 449.023 97.4467 448.739 98.7308 448.739C99.5945 448.739 100.398 448.878 101.143 449.156C101.893 449.429 102.546 449.841 103.103 450.392C103.665 450.943 104.103 451.636 104.415 452.472C104.728 453.301 104.884 454.273 104.884 455.386V456.384H93.8303V454.134H101.467C101.467 453.611 101.353 453.148 101.126 452.744C100.898 452.341 100.583 452.026 100.18 451.798C99.782 451.565 99.3189 451.449 98.7905 451.449C98.2393 451.449 97.7507 451.577 97.3246 451.832C96.9041 452.082 96.5746 452.42 96.3359 452.847C96.0973 453.267 95.9751 453.736 95.9695 454.253V456.392C95.9695 457.04 96.0888 457.599 96.3274 458.071C96.5717 458.543 96.9155 458.906 97.3587 459.162C97.8018 459.418 98.3274 459.545 98.9354 459.545C99.3388 459.545 99.7081 459.489 100.043 459.375C100.379 459.261 100.665 459.091 100.904 458.864C101.143 458.636 101.325 458.358 101.45 458.028L104.808 458.25C104.637 459.057 104.288 459.761 103.759 460.364C103.237 460.96 102.56 461.426 101.731 461.761C100.907 462.091 99.9553 462.256 98.8757 462.256ZM110.884 444.545V462H107.254V444.545H110.884ZM119.707 462.256C118.366 462.256 117.213 461.972 116.247 461.403C115.287 460.83 114.548 460.034 114.031 459.017C113.52 458 113.264 456.83 113.264 455.506C113.264 454.165 113.523 452.989 114.04 451.977C114.563 450.96 115.304 450.168 116.264 449.599C117.224 449.026 118.366 448.739 119.69 448.739C120.832 448.739 121.832 448.946 122.69 449.361C123.548 449.776 124.227 450.358 124.727 451.108C125.227 451.858 125.503 452.739 125.554 453.75H122.128C122.031 453.097 121.776 452.571 121.361 452.173C120.952 451.77 120.415 451.568 119.75 451.568C119.188 451.568 118.696 451.722 118.276 452.028C117.861 452.33 117.537 452.77 117.304 453.349C117.071 453.929 116.955 454.631 116.955 455.455C116.955 456.29 117.068 457 117.295 457.585C117.528 458.17 117.855 458.616 118.276 458.923C118.696 459.23 119.188 459.384 119.75 459.384C120.165 459.384 120.537 459.298 120.866 459.128C121.202 458.957 121.477 458.71 121.693 458.386C121.915 458.057 122.06 457.662 122.128 457.202H125.554C125.497 458.202 125.224 459.082 124.736 459.844C124.253 460.599 123.585 461.19 122.733 461.616C121.881 462.043 120.872 462.256 119.707 462.256ZM133.793 462.256C132.469 462.256 131.325 461.974 130.359 461.412C129.398 460.844 128.657 460.054 128.134 459.043C127.612 458.026 127.35 456.847 127.35 455.506C127.35 454.153 127.612 452.972 128.134 451.96C128.657 450.943 129.398 450.153 130.359 449.591C131.325 449.023 132.469 448.739 133.793 448.739C135.117 448.739 136.259 449.023 137.219 449.591C138.185 450.153 138.93 450.943 139.452 451.96C139.975 452.972 140.237 454.153 140.237 455.506C140.237 456.847 139.975 458.026 139.452 459.043C138.93 460.054 138.185 460.844 137.219 461.412C136.259 461.974 135.117 462.256 133.793 462.256ZM133.81 459.443C134.413 459.443 134.915 459.273 135.319 458.932C135.722 458.585 136.026 458.114 136.231 457.517C136.441 456.92 136.546 456.241 136.546 455.48C136.546 454.719 136.441 454.04 136.231 453.443C136.026 452.847 135.722 452.375 135.319 452.028C134.915 451.682 134.413 451.509 133.81 451.509C133.202 451.509 132.691 451.682 132.276 452.028C131.867 452.375 131.558 452.847 131.347 453.443C131.143 454.04 131.04 454.719 131.04 455.48C131.04 456.241 131.143 456.92 131.347 457.517C131.558 458.114 131.867 458.585 132.276 458.932C132.691 459.273 133.202 459.443 133.81 459.443ZM142.597 462V448.909H146.058V451.219H146.211C146.484 450.452 146.938 449.847 147.575 449.403C148.211 448.96 148.972 448.739 149.859 448.739C150.756 448.739 151.521 448.963 152.151 449.412C152.782 449.855 153.202 450.457 153.413 451.219H153.549C153.816 450.469 154.299 449.869 154.998 449.42C155.702 448.966 156.535 448.739 157.495 448.739C158.717 448.739 159.708 449.128 160.469 449.906C161.237 450.679 161.62 451.776 161.62 453.196V462H157.998V453.912C157.998 453.185 157.805 452.639 157.418 452.276C157.032 451.912 156.549 451.73 155.969 451.73C155.31 451.73 154.796 451.94 154.427 452.361C154.058 452.776 153.873 453.324 153.873 454.006V462H150.353V453.835C150.353 453.193 150.168 452.682 149.799 452.301C149.435 451.92 148.955 451.73 148.359 451.73C147.955 451.73 147.592 451.832 147.268 452.037C146.95 452.236 146.697 452.517 146.509 452.881C146.322 453.239 146.228 453.659 146.228 454.142V462H142.597ZM170.454 462.256C169.107 462.256 167.948 461.983 166.977 461.438C166.011 460.886 165.266 460.108 164.744 459.102C164.221 458.091 163.96 456.895 163.96 455.514C163.96 454.168 164.221 452.986 164.744 451.969C165.266 450.952 166.002 450.159 166.951 449.591C167.906 449.023 169.025 448.739 170.309 448.739C171.173 448.739 171.977 448.878 172.721 449.156C173.471 449.429 174.124 449.841 174.681 450.392C175.244 450.943 175.681 451.636 175.994 452.472C176.306 453.301 176.462 454.273 176.462 455.386V456.384H165.408V454.134H173.045C173.045 453.611 172.931 453.148 172.704 452.744C172.477 452.341 172.161 452.026 171.758 451.798C171.36 451.565 170.897 451.449 170.369 451.449C169.817 451.449 169.329 451.577 168.903 451.832C168.482 452.082 168.153 452.42 167.914 452.847C167.675 453.267 167.553 453.736 167.548 454.253V456.392C167.548 457.04 167.667 457.599 167.906 458.071C168.15 458.543 168.494 458.906 168.937 459.162C169.38 459.418 169.906 459.545 170.513 459.545C170.917 459.545 171.286 459.489 171.621 459.375C171.957 459.261 172.244 459.091 172.482 458.864C172.721 458.636 172.903 458.358 173.028 458.028L176.386 458.25C176.215 459.057 175.866 459.761 175.337 460.364C174.815 460.96 174.138 461.426 173.309 461.761C172.485 462.091 171.533 462.256 170.454 462.256ZM191.349 448.909V451.636H183.466V448.909H191.349ZM185.256 445.773H188.886V457.977C188.886 458.312 188.938 458.574 189.04 458.761C189.142 458.943 189.284 459.071 189.466 459.145C189.653 459.219 189.869 459.256 190.114 459.256C190.284 459.256 190.455 459.241 190.625 459.213C190.795 459.179 190.926 459.153 191.017 459.136L191.588 461.838C191.406 461.895 191.151 461.96 190.821 462.034C190.491 462.114 190.091 462.162 189.619 462.179C188.744 462.213 187.977 462.097 187.318 461.83C186.665 461.562 186.156 461.148 185.793 460.585C185.429 460.023 185.25 459.312 185.256 458.455V445.773ZM199.489 462.256C198.165 462.256 197.02 461.974 196.054 461.412C195.094 460.844 194.352 460.054 193.83 459.043C193.307 458.026 193.045 456.847 193.045 455.506C193.045 454.153 193.307 452.972 193.83 451.96C194.352 450.943 195.094 450.153 196.054 449.591C197.02 449.023 198.165 448.739 199.489 448.739C200.812 448.739 201.955 449.023 202.915 449.591C203.881 450.153 204.625 450.943 205.148 451.96C205.67 452.972 205.932 454.153 205.932 455.506C205.932 456.847 205.67 458.026 205.148 459.043C204.625 460.054 203.881 460.844 202.915 461.412C201.955 461.974 200.812 462.256 199.489 462.256ZM199.506 459.443C200.108 459.443 200.611 459.273 201.014 458.932C201.418 458.585 201.722 458.114 201.926 457.517C202.136 456.92 202.241 456.241 202.241 455.48C202.241 454.719 202.136 454.04 201.926 453.443C201.722 452.847 201.418 452.375 201.014 452.028C200.611 451.682 200.108 451.509 199.506 451.509C198.898 451.509 198.386 451.682 197.972 452.028C197.563 452.375 197.253 452.847 197.043 453.443C196.838 454.04 196.736 454.719 196.736 455.48C196.736 456.241 196.838 456.92 197.043 457.517C197.253 458.114 197.563 458.585 197.972 458.932C198.386 459.273 198.898 459.443 199.506 459.443ZM225.489 450.188C225.37 449.773 225.202 449.406 224.987 449.088C224.771 448.764 224.506 448.491 224.194 448.27C223.887 448.043 223.535 447.869 223.137 447.75C222.745 447.631 222.31 447.571 221.833 447.571C220.941 447.571 220.157 447.793 219.481 448.236C218.81 448.679 218.288 449.324 217.913 450.17C217.538 451.011 217.35 452.04 217.35 453.256C217.35 454.472 217.535 455.506 217.904 456.358C218.273 457.21 218.796 457.861 219.472 458.31C220.148 458.753 220.947 458.974 221.867 458.974C222.702 458.974 223.415 458.827 224.006 458.531C224.603 458.23 225.058 457.807 225.37 457.261C225.688 456.716 225.847 456.071 225.847 455.327L226.597 455.438H222.097V452.659H229.401V454.858C229.401 456.392 229.077 457.71 228.43 458.812C227.782 459.909 226.89 460.756 225.754 461.352C224.617 461.943 223.316 462.239 221.85 462.239C220.214 462.239 218.776 461.878 217.538 461.156C216.299 460.429 215.333 459.398 214.64 458.062C213.952 456.722 213.609 455.131 213.609 453.29C213.609 451.875 213.813 450.614 214.222 449.506C214.637 448.392 215.217 447.449 215.961 446.676C216.705 445.903 217.572 445.315 218.56 444.912C219.549 444.509 220.62 444.307 221.773 444.307C222.762 444.307 223.683 444.452 224.535 444.741C225.387 445.026 226.143 445.429 226.802 445.952C227.467 446.474 228.009 447.097 228.43 447.818C228.85 448.534 229.12 449.324 229.239 450.188H225.489ZM240.5 456.426V448.909H244.131V462H240.645V459.622H240.509C240.213 460.389 239.722 461.006 239.034 461.472C238.352 461.937 237.52 462.17 236.537 462.17C235.662 462.17 234.892 461.972 234.227 461.574C233.563 461.176 233.043 460.611 232.668 459.878C232.298 459.145 232.111 458.267 232.105 457.244V448.909H235.736V456.597C235.741 457.369 235.949 457.98 236.358 458.429C236.767 458.878 237.315 459.102 238.003 459.102C238.44 459.102 238.849 459.003 239.23 458.804C239.611 458.599 239.918 458.298 240.151 457.901C240.389 457.503 240.506 457.011 240.5 456.426ZM250.768 462.247C249.933 462.247 249.188 462.102 248.535 461.812C247.881 461.517 247.364 461.082 246.984 460.509C246.609 459.929 246.421 459.207 246.421 458.344C246.421 457.616 246.555 457.006 246.822 456.511C247.089 456.017 247.452 455.619 247.913 455.318C248.373 455.017 248.896 454.79 249.481 454.636C250.072 454.483 250.691 454.375 251.339 454.312C252.1 454.233 252.714 454.159 253.18 454.091C253.646 454.017 253.984 453.909 254.194 453.767C254.404 453.625 254.509 453.415 254.509 453.136V453.085C254.509 452.545 254.339 452.128 253.998 451.832C253.663 451.537 253.185 451.389 252.566 451.389C251.913 451.389 251.393 451.534 251.006 451.824C250.62 452.108 250.364 452.466 250.239 452.898L246.881 452.625C247.052 451.83 247.387 451.142 247.887 450.562C248.387 449.977 249.032 449.528 249.822 449.216C250.617 448.898 251.538 448.739 252.583 448.739C253.31 448.739 254.006 448.824 254.671 448.994C255.342 449.165 255.935 449.429 256.452 449.787C256.975 450.145 257.387 450.605 257.688 451.168C257.989 451.724 258.14 452.392 258.14 453.17V462H254.697V460.185H254.594C254.384 460.594 254.103 460.955 253.751 461.267C253.398 461.574 252.975 461.815 252.481 461.991C251.987 462.162 251.415 462.247 250.768 462.247ZM251.808 459.741C252.342 459.741 252.813 459.636 253.222 459.426C253.631 459.21 253.952 458.92 254.185 458.557C254.418 458.193 254.535 457.781 254.535 457.321V455.932C254.421 456.006 254.265 456.074 254.066 456.136C253.873 456.193 253.654 456.247 253.41 456.298C253.165 456.344 252.921 456.386 252.677 456.426C252.433 456.46 252.211 456.491 252.012 456.52C251.586 456.582 251.214 456.682 250.896 456.818C250.577 456.955 250.33 457.139 250.154 457.372C249.978 457.599 249.89 457.884 249.89 458.224C249.89 458.719 250.069 459.097 250.427 459.358C250.79 459.614 251.251 459.741 251.808 459.741ZM260.957 462V448.909H264.477V451.193H264.613C264.852 450.381 265.252 449.767 265.815 449.352C266.377 448.932 267.025 448.722 267.758 448.722C267.94 448.722 268.136 448.733 268.346 448.756C268.556 448.778 268.741 448.81 268.9 448.849V452.071C268.729 452.02 268.494 451.974 268.192 451.935C267.891 451.895 267.616 451.875 267.366 451.875C266.832 451.875 266.354 451.991 265.934 452.224C265.519 452.452 265.19 452.77 264.945 453.179C264.707 453.588 264.587 454.06 264.587 454.594V462H260.957ZM274.991 462.213C273.997 462.213 273.097 461.957 272.29 461.446C271.489 460.929 270.852 460.17 270.381 459.17C269.915 458.165 269.682 456.932 269.682 455.472C269.682 453.972 269.923 452.724 270.406 451.73C270.889 450.73 271.531 449.983 272.332 449.489C273.139 448.989 274.023 448.739 274.983 448.739C275.716 448.739 276.327 448.864 276.815 449.114C277.31 449.358 277.707 449.665 278.009 450.034C278.315 450.398 278.548 450.756 278.707 451.108H278.818V444.545H282.44V462H278.861V459.903H278.707C278.537 460.267 278.295 460.628 277.983 460.986C277.676 461.338 277.276 461.631 276.781 461.864C276.293 462.097 275.696 462.213 274.991 462.213ZM276.142 459.324C276.727 459.324 277.222 459.165 277.625 458.847C278.034 458.523 278.347 458.071 278.562 457.491C278.784 456.912 278.895 456.233 278.895 455.455C278.895 454.676 278.787 454 278.571 453.426C278.355 452.852 278.043 452.409 277.634 452.097C277.224 451.784 276.727 451.628 276.142 451.628C275.545 451.628 275.043 451.79 274.634 452.114C274.224 452.437 273.915 452.886 273.705 453.46C273.494 454.034 273.389 454.699 273.389 455.455C273.389 456.216 273.494 456.889 273.705 457.474C273.92 458.054 274.23 458.509 274.634 458.838C275.043 459.162 275.545 459.324 276.142 459.324ZM285.425 462V448.909H289.056V462H285.425ZM287.249 447.222C286.71 447.222 286.246 447.043 285.86 446.685C285.479 446.321 285.289 445.886 285.289 445.381C285.289 444.881 285.479 444.452 285.86 444.094C286.246 443.73 286.71 443.548 287.249 443.548C287.789 443.548 288.249 443.73 288.63 444.094C289.016 444.452 289.21 444.881 289.21 445.381C289.21 445.886 289.016 446.321 288.63 446.685C288.249 447.043 287.789 447.222 287.249 447.222ZM295.697 462.247C294.862 462.247 294.118 462.102 293.464 461.812C292.811 461.517 292.294 461.082 291.913 460.509C291.538 459.929 291.351 459.207 291.351 458.344C291.351 457.616 291.484 457.006 291.751 456.511C292.018 456.017 292.382 455.619 292.842 455.318C293.303 455.017 293.825 454.79 294.411 454.636C295.001 454.483 295.621 454.375 296.268 454.312C297.03 454.233 297.643 454.159 298.109 454.091C298.575 454.017 298.913 453.909 299.124 453.767C299.334 453.625 299.439 453.415 299.439 453.136V453.085C299.439 452.545 299.268 452.128 298.928 451.832C298.592 451.537 298.115 451.389 297.496 451.389C296.842 451.389 296.322 451.534 295.936 451.824C295.55 452.108 295.294 452.466 295.169 452.898L291.811 452.625C291.982 451.83 292.317 451.142 292.817 450.562C293.317 449.977 293.962 449.528 294.751 449.216C295.547 448.898 296.467 448.739 297.513 448.739C298.24 448.739 298.936 448.824 299.601 448.994C300.271 449.165 300.865 449.429 301.382 449.787C301.905 450.145 302.317 450.605 302.618 451.168C302.919 451.724 303.07 452.392 303.07 453.17V462H299.626V460.185H299.524C299.314 460.594 299.033 460.955 298.68 461.267C298.328 461.574 297.905 461.815 297.411 461.991C296.916 462.162 296.345 462.247 295.697 462.247ZM296.737 459.741C297.271 459.741 297.743 459.636 298.152 459.426C298.561 459.21 298.882 458.92 299.115 458.557C299.348 458.193 299.464 457.781 299.464 457.321V455.932C299.351 456.006 299.195 456.074 298.996 456.136C298.803 456.193 298.584 456.247 298.339 456.298C298.095 456.344 297.851 456.386 297.607 456.426C297.362 456.46 297.141 456.491 296.942 456.52C296.516 456.582 296.143 456.682 295.825 456.818C295.507 456.955 295.26 457.139 295.084 457.372C294.908 457.599 294.82 457.884 294.82 458.224C294.82 458.719 294.999 459.097 295.357 459.358C295.72 459.614 296.18 459.741 296.737 459.741ZM309.517 454.432V462H305.886V448.909H309.347V451.219H309.5C309.79 450.457 310.276 449.855 310.957 449.412C311.639 448.963 312.466 448.739 313.438 448.739C314.347 448.739 315.139 448.938 315.815 449.335C316.491 449.733 317.017 450.301 317.392 451.04C317.767 451.773 317.955 452.648 317.955 453.665V462H314.324V454.312C314.33 453.511 314.125 452.886 313.71 452.438C313.295 451.983 312.724 451.756 311.997 451.756C311.509 451.756 311.077 451.861 310.702 452.071C310.332 452.281 310.043 452.588 309.832 452.991C309.628 453.389 309.523 453.869 309.517 454.432Z" fill="#2B2B2B"/>
<path d="M93.6051 824V823.182C93.6051 822.94 93.6506 822.686 93.7415 822.419C93.8324 822.152 93.9588 821.896 94.1207 821.652C94.2827 821.408 94.473 821.199 94.6918 821.026L95.3224 821.477C95.1491 821.73 95.0014 821.994 94.8793 822.27C94.7571 822.545 94.696 822.845 94.696 823.169V824H93.6051ZM95.7784 824V823.182C95.7784 822.94 95.8239 822.686 95.9148 822.419C96.0057 822.152 96.1321 821.896 96.294 821.652C96.456 821.408 96.6463 821.199 96.8651 821.026L97.4957 821.477C97.3224 821.73 97.1747 821.994 97.0526 822.27C96.9304 822.545 96.8693 822.845 96.8693 823.169V824H95.7784ZM98.0199 821.273H99.5156L101.795 825.24H101.889L104.169 821.273H105.665L102.499 826.574V830H101.186V826.574L98.0199 821.273ZM108.485 830.132C107.871 830.132 107.336 829.991 106.878 829.71C106.421 829.429 106.066 829.036 105.813 828.53C105.56 828.024 105.434 827.433 105.434 826.757C105.434 826.078 105.56 825.484 105.813 824.976C106.066 824.467 106.421 824.072 106.878 823.791C107.336 823.51 107.871 823.369 108.485 823.369C109.098 823.369 109.634 823.51 110.091 823.791C110.549 824.072 110.904 824.467 111.157 824.976C111.409 825.484 111.536 826.078 111.536 826.757C111.536 827.433 111.409 828.024 111.157 828.53C110.904 829.036 110.549 829.429 110.091 829.71C109.634 829.991 109.098 830.132 108.485 830.132ZM108.489 829.062C108.887 829.062 109.216 828.957 109.478 828.747C109.739 828.537 109.932 828.257 110.057 827.908C110.185 827.558 110.249 827.173 110.249 826.753C110.249 826.335 110.185 825.952 110.057 825.602C109.932 825.25 109.739 824.967 109.478 824.754C109.216 824.541 108.887 824.435 108.489 824.435C108.088 824.435 107.756 824.541 107.492 824.754C107.23 824.967 107.036 825.25 106.908 825.602C106.783 825.952 106.721 826.335 106.721 826.753C106.721 827.173 106.783 827.558 106.908 827.908C107.036 828.257 107.23 828.537 107.492 828.747C107.756 828.957 108.088 829.062 108.489 829.062ZM117.104 827.286V823.455H118.383V830H117.13V828.866H117.062C116.911 829.216 116.67 829.507 116.337 829.74C116.008 829.97 115.597 830.085 115.106 830.085C114.685 830.085 114.313 829.993 113.989 829.808C113.668 829.621 113.415 829.344 113.231 828.977C113.049 828.611 112.958 828.158 112.958 827.618V823.455H114.232V827.464C114.232 827.911 114.356 828.266 114.603 828.53C114.85 828.794 115.171 828.926 115.566 828.926C115.805 828.926 116.042 828.866 116.278 828.747C116.516 828.628 116.714 828.447 116.87 828.206C117.029 827.964 117.107 827.658 117.104 827.286ZM120.095 830V823.455H121.326V824.494H121.395C121.514 824.142 121.724 823.865 122.025 823.663C122.329 823.459 122.673 823.357 123.056 823.357C123.136 823.357 123.23 823.359 123.338 823.365C123.449 823.371 123.535 823.378 123.598 823.386V824.605C123.547 824.591 123.456 824.575 123.325 824.558C123.194 824.538 123.064 824.528 122.933 824.528C122.632 824.528 122.363 824.592 122.127 824.72C121.895 824.845 121.71 825.02 121.574 825.244C121.437 825.466 121.369 825.719 121.369 826.003V830H120.095ZM130.326 830.128C129.798 830.128 129.326 829.993 128.912 829.723C128.5 829.45 128.176 829.062 127.94 828.56C127.707 828.054 127.591 827.447 127.591 826.74C127.591 826.033 127.708 825.428 127.944 824.925C128.183 824.422 128.51 824.037 128.924 823.77C129.339 823.503 129.809 823.369 130.335 823.369C130.741 823.369 131.068 823.438 131.315 823.574C131.565 823.707 131.758 823.864 131.895 824.043C132.034 824.222 132.142 824.379 132.218 824.516H132.295V821.273H133.569V830H132.325V828.982H132.218C132.142 829.121 132.031 829.28 131.886 829.459C131.744 829.638 131.548 829.794 131.298 829.928C131.048 830.061 130.724 830.128 130.326 830.128ZM130.608 829.041C130.974 829.041 131.284 828.945 131.537 828.751C131.792 828.555 131.985 828.284 132.116 827.938C132.25 827.591 132.316 827.187 132.316 826.727C132.316 826.273 132.251 825.875 132.12 825.534C131.99 825.193 131.798 824.928 131.545 824.737C131.292 824.547 130.98 824.452 130.608 824.452C130.224 824.452 129.904 824.551 129.649 824.75C129.393 824.949 129.2 825.22 129.069 825.564C128.941 825.908 128.877 826.295 128.877 826.727C128.877 827.165 128.943 827.558 129.074 827.908C129.204 828.257 129.397 828.534 129.653 828.739C129.912 828.94 130.23 829.041 130.608 829.041ZM137.293 830.145C136.878 830.145 136.503 830.068 136.168 829.915C135.832 829.759 135.567 829.533 135.371 829.237C135.178 828.942 135.081 828.58 135.081 828.151C135.081 827.781 135.152 827.477 135.294 827.239C135.436 827 135.628 826.811 135.869 826.672C136.111 826.533 136.381 826.428 136.679 826.357C136.977 826.286 137.281 826.232 137.591 826.195C137.983 826.149 138.301 826.112 138.545 826.084C138.79 826.053 138.967 826.003 139.078 825.935C139.189 825.866 139.244 825.756 139.244 825.602V825.572C139.244 825.2 139.139 824.912 138.929 824.707C138.722 824.503 138.412 824.401 138 824.401C137.571 824.401 137.233 824.496 136.986 824.686C136.741 824.874 136.572 825.082 136.479 825.312L135.281 825.04C135.423 824.642 135.631 824.321 135.903 824.077C136.179 823.83 136.496 823.651 136.854 823.54C137.212 823.426 137.588 823.369 137.983 823.369C138.244 823.369 138.521 823.401 138.814 823.463C139.109 823.523 139.385 823.634 139.641 823.795C139.899 823.957 140.111 824.189 140.276 824.49C140.44 824.788 140.523 825.176 140.523 825.653V830H139.278V829.105H139.227C139.145 829.27 139.021 829.432 138.857 829.591C138.692 829.75 138.48 829.882 138.222 829.987C137.963 830.092 137.653 830.145 137.293 830.145ZM137.57 829.122C137.922 829.122 138.223 829.053 138.473 828.913C138.726 828.774 138.918 828.592 139.048 828.368C139.182 828.141 139.249 827.898 139.249 827.639V826.795C139.203 826.841 139.115 826.884 138.984 826.923C138.857 826.96 138.71 826.993 138.545 827.021C138.381 827.047 138.22 827.071 138.064 827.094C137.908 827.114 137.777 827.131 137.672 827.145C137.425 827.176 137.199 827.229 136.994 827.303C136.793 827.376 136.631 827.483 136.509 827.622C136.389 827.759 136.33 827.94 136.33 828.168C136.33 828.483 136.446 828.722 136.679 828.884C136.912 829.043 137.209 829.122 137.57 829.122ZM145.275 823.455V824.477H141.7V823.455H145.275ZM142.659 821.886H143.933V828.078C143.933 828.325 143.97 828.511 144.044 828.636C144.118 828.759 144.213 828.842 144.329 828.888C144.449 828.93 144.578 828.952 144.717 828.952C144.819 828.952 144.909 828.945 144.985 828.93C145.062 828.916 145.122 828.905 145.164 828.896L145.395 829.949C145.321 829.977 145.216 830.006 145.079 830.034C144.943 830.065 144.772 830.082 144.568 830.085C144.233 830.091 143.92 830.031 143.63 829.906C143.341 829.781 143.106 829.588 142.927 829.327C142.748 829.065 142.659 828.737 142.659 828.342V821.886ZM148.589 830.145C148.175 830.145 147.8 830.068 147.464 829.915C147.129 829.759 146.864 829.533 146.668 829.237C146.474 828.942 146.378 828.58 146.378 828.151C146.378 827.781 146.449 827.477 146.591 827.239C146.733 827 146.925 826.811 147.166 826.672C147.408 826.533 147.678 826.428 147.976 826.357C148.274 826.286 148.578 826.232 148.888 826.195C149.28 826.149 149.598 826.112 149.842 826.084C150.087 826.053 150.264 826.003 150.375 825.935C150.486 825.866 150.541 825.756 150.541 825.602V825.572C150.541 825.2 150.436 824.912 150.226 824.707C150.018 824.503 149.709 824.401 149.297 824.401C148.868 824.401 148.53 824.496 148.283 824.686C148.038 824.874 147.869 825.082 147.776 825.312L146.578 825.04C146.72 824.642 146.928 824.321 147.2 824.077C147.476 823.83 147.793 823.651 148.151 823.54C148.509 823.426 148.885 823.369 149.28 823.369C149.541 823.369 149.818 823.401 150.111 823.463C150.406 823.523 150.682 823.634 150.938 823.795C151.196 823.957 151.408 824.189 151.572 824.49C151.737 824.788 151.82 825.176 151.82 825.653V830H150.575V829.105H150.524C150.442 829.27 150.318 829.432 150.153 829.591C149.989 829.75 149.777 829.882 149.518 829.987C149.26 830.092 148.95 830.145 148.589 830.145ZM148.866 829.122C149.219 829.122 149.52 829.053 149.77 828.913C150.023 828.774 150.214 828.592 150.345 828.368C150.479 828.141 150.545 827.898 150.545 827.639V826.795C150.5 826.841 150.412 826.884 150.281 826.923C150.153 826.96 150.007 826.993 149.842 827.021C149.678 827.047 149.517 827.071 149.361 827.094C149.205 827.114 149.074 827.131 148.969 827.145C148.722 827.176 148.496 827.229 148.291 827.303C148.089 827.376 147.928 827.483 147.805 827.622C147.686 827.759 147.626 827.94 147.626 828.168C147.626 828.483 147.743 828.722 147.976 828.884C148.209 829.043 148.506 829.122 148.866 829.122ZM161.597 825.053L160.442 825.257C160.394 825.109 160.317 824.969 160.212 824.835C160.11 824.702 159.971 824.592 159.795 824.507C159.619 824.422 159.398 824.379 159.134 824.379C158.773 824.379 158.472 824.46 158.231 824.622C157.989 824.781 157.869 824.987 157.869 825.24C157.869 825.459 157.95 825.635 158.112 825.768C158.273 825.902 158.535 826.011 158.896 826.097L159.935 826.335C160.538 826.474 160.987 826.689 161.282 826.979C161.577 827.268 161.725 827.645 161.725 828.108C161.725 828.5 161.612 828.849 161.384 829.156C161.16 829.46 160.846 829.699 160.442 829.872C160.042 830.045 159.577 830.132 159.049 830.132C158.316 830.132 157.718 829.976 157.255 829.663C156.792 829.348 156.508 828.901 156.403 828.321L157.634 828.134C157.711 828.455 157.869 828.697 158.107 828.862C158.346 829.024 158.657 829.105 159.04 829.105C159.458 829.105 159.792 829.018 160.042 828.845C160.292 828.669 160.417 828.455 160.417 828.202C160.417 827.997 160.34 827.825 160.187 827.686C160.036 827.547 159.805 827.442 159.492 827.371L158.384 827.128C157.773 826.989 157.322 826.767 157.029 826.463C156.739 826.159 156.594 825.774 156.594 825.308C156.594 824.922 156.702 824.584 156.918 824.294C157.134 824.004 157.433 823.778 157.813 823.616C158.194 823.452 158.63 823.369 159.121 823.369C159.829 823.369 160.386 823.523 160.792 823.83C161.198 824.134 161.467 824.541 161.597 825.053ZM166.181 823.455V824.477H162.606V823.455H166.181ZM163.565 821.886H164.839V828.078C164.839 828.325 164.876 828.511 164.95 828.636C165.024 828.759 165.119 828.842 165.235 828.888C165.355 828.93 165.484 828.952 165.623 828.952C165.725 828.952 165.815 828.945 165.892 828.93C165.968 828.916 166.028 828.905 166.071 828.896L166.301 829.949C166.227 829.977 166.122 830.006 165.985 830.034C165.849 830.065 165.679 830.082 165.474 830.085C165.139 830.091 164.826 830.031 164.537 829.906C164.247 829.781 164.012 829.588 163.833 829.327C163.654 829.065 163.565 828.737 163.565 828.342V821.886ZM169.496 830.145C169.081 830.145 168.706 830.068 168.371 829.915C168.036 829.759 167.77 829.533 167.574 829.237C167.381 828.942 167.284 828.58 167.284 828.151C167.284 827.781 167.355 827.477 167.497 827.239C167.639 827 167.831 826.811 168.072 826.672C168.314 826.533 168.584 826.428 168.882 826.357C169.18 826.286 169.484 826.232 169.794 826.195C170.186 826.149 170.504 826.112 170.749 826.084C170.993 826.053 171.17 826.003 171.281 825.935C171.392 825.866 171.447 825.756 171.447 825.602V825.572C171.447 825.2 171.342 824.912 171.132 824.707C170.925 824.503 170.615 824.401 170.203 824.401C169.774 824.401 169.436 824.496 169.189 824.686C168.945 824.874 168.776 825.082 168.682 825.312L167.484 825.04C167.626 824.642 167.834 824.321 168.107 824.077C168.382 823.83 168.699 823.651 169.057 823.54C169.415 823.426 169.791 823.369 170.186 823.369C170.447 823.369 170.724 823.401 171.017 823.463C171.313 823.523 171.588 823.634 171.844 823.795C172.102 823.957 172.314 824.189 172.479 824.49C172.643 824.788 172.726 825.176 172.726 825.653V830H171.482V829.105H171.43C171.348 829.27 171.224 829.432 171.06 829.591C170.895 829.75 170.683 829.882 170.425 829.987C170.166 830.092 169.857 830.145 169.496 830.145ZM169.773 829.122C170.125 829.122 170.426 829.053 170.676 828.913C170.929 828.774 171.121 828.592 171.251 828.368C171.385 828.141 171.452 827.898 171.452 827.639V826.795C171.406 826.841 171.318 826.884 171.188 826.923C171.06 826.96 170.913 826.993 170.749 827.021C170.584 827.047 170.423 827.071 170.267 827.094C170.111 827.114 169.98 827.131 169.875 827.145C169.628 827.176 169.402 827.229 169.197 827.303C168.996 827.376 168.834 827.483 168.712 827.622C168.592 827.759 168.533 827.94 168.533 828.168C168.533 828.483 168.649 828.722 168.882 828.884C169.115 829.043 169.412 829.122 169.773 829.122ZM174.994 832.455C174.804 832.455 174.63 832.439 174.474 832.408C174.318 832.379 174.201 832.348 174.125 832.314L174.431 831.27C174.664 831.332 174.872 831.359 175.054 831.351C175.235 831.342 175.396 831.274 175.535 831.146C175.677 831.018 175.802 830.81 175.91 830.52L176.068 830.085L173.673 823.455H175.037L176.694 828.534H176.762L178.42 823.455H179.788L177.091 830.874C176.966 831.214 176.806 831.503 176.613 831.739C176.42 831.977 176.19 832.156 175.923 832.276C175.656 832.395 175.346 832.455 174.994 832.455ZM185.89 825.053L184.735 825.257C184.687 825.109 184.61 824.969 184.505 824.835C184.403 824.702 184.264 824.592 184.088 824.507C183.912 824.422 183.691 824.379 183.427 824.379C183.066 824.379 182.765 824.46 182.524 824.622C182.282 824.781 182.162 824.987 182.162 825.24C182.162 825.459 182.243 825.635 182.404 825.768C182.566 825.902 182.828 826.011 183.189 826.097L184.228 826.335C184.831 826.474 185.279 826.689 185.575 826.979C185.87 827.268 186.018 827.645 186.018 828.108C186.018 828.5 185.904 828.849 185.677 829.156C185.453 829.46 185.139 829.699 184.735 829.872C184.335 830.045 183.87 830.132 183.342 830.132C182.609 830.132 182.011 829.976 181.548 829.663C181.085 829.348 180.801 828.901 180.696 828.321L181.927 828.134C182.004 828.455 182.162 828.697 182.4 828.862C182.639 829.024 182.95 829.105 183.333 829.105C183.751 829.105 184.085 829.018 184.335 828.845C184.585 828.669 184.71 828.455 184.71 828.202C184.71 827.997 184.633 827.825 184.48 827.686C184.329 827.547 184.098 827.442 183.785 827.371L182.677 827.128C182.066 826.989 181.615 826.767 181.322 826.463C181.032 826.159 180.887 825.774 180.887 825.308C180.887 824.922 180.995 824.584 181.211 824.294C181.427 824.004 181.725 823.778 182.106 823.616C182.487 823.452 182.923 823.369 183.414 823.369C184.122 823.369 184.679 823.523 185.085 823.83C185.491 824.134 185.76 824.541 185.89 825.053ZM190.595 832.455V823.455H191.839V824.516H191.946C192.02 824.379 192.126 824.222 192.265 824.043C192.404 823.864 192.598 823.707 192.845 823.574C193.092 823.438 193.419 823.369 193.825 823.369C194.353 823.369 194.825 823.503 195.24 823.77C195.654 824.037 195.98 824.422 196.216 824.925C196.454 825.428 196.574 826.033 196.574 826.74C196.574 827.447 196.456 828.054 196.22 828.56C195.984 829.062 195.66 829.45 195.248 829.723C194.836 829.993 194.366 830.128 193.838 830.128C193.44 830.128 193.115 830.061 192.862 829.928C192.612 829.794 192.416 829.638 192.274 829.459C192.132 829.28 192.022 829.121 191.946 828.982H191.869V832.455H190.595ZM191.843 826.727C191.843 827.187 191.91 827.591 192.044 827.938C192.177 828.284 192.37 828.555 192.623 828.751C192.876 828.945 193.186 829.041 193.552 829.041C193.933 829.041 194.251 828.94 194.507 828.739C194.762 828.534 194.956 828.257 195.086 827.908C195.22 827.558 195.287 827.165 195.287 826.727C195.287 826.295 195.221 825.908 195.091 825.564C194.963 825.22 194.77 824.949 194.511 824.75C194.255 824.551 193.936 824.452 193.552 824.452C193.183 824.452 192.87 824.547 192.615 824.737C192.362 824.928 192.17 825.193 192.039 825.534C191.909 825.875 191.843 826.273 191.843 826.727ZM198.001 830V823.455H199.233V824.494H199.301C199.42 824.142 199.63 823.865 199.931 823.663C200.235 823.459 200.579 823.357 200.963 823.357C201.042 823.357 201.136 823.359 201.244 823.365C201.355 823.371 201.441 823.378 201.504 823.386V824.605C201.453 824.591 201.362 824.575 201.231 824.558C201.1 824.538 200.97 824.528 200.839 824.528C200.538 824.528 200.27 824.592 200.034 824.72C199.801 824.845 199.616 825.02 199.48 825.244C199.343 825.466 199.275 825.719 199.275 826.003V830H198.001ZM202.607 830V823.455H203.881V830H202.607ZM203.25 822.445C203.028 822.445 202.838 822.371 202.679 822.223C202.523 822.072 202.445 821.893 202.445 821.686C202.445 821.476 202.523 821.297 202.679 821.149C202.838 820.999 203.028 820.923 203.25 820.923C203.472 820.923 203.661 820.999 203.817 821.149C203.976 821.297 204.055 821.476 204.055 821.686C204.055 821.893 203.976 822.072 203.817 822.223C203.661 822.371 203.472 822.445 203.25 822.445ZM211.194 823.455L208.821 830H207.457L205.079 823.455H206.447L208.105 828.491H208.173L209.826 823.455H211.194ZM214.109 830.145C213.694 830.145 213.319 830.068 212.984 829.915C212.649 829.759 212.383 829.533 212.187 829.237C211.994 828.942 211.897 828.58 211.897 828.151C211.897 827.781 211.968 827.477 212.11 827.239C212.252 827 212.444 826.811 212.686 826.672C212.927 826.533 213.197 826.428 213.495 826.357C213.794 826.286 214.098 826.232 214.407 826.195C214.799 826.149 215.118 826.112 215.362 826.084C215.606 826.053 215.784 826.003 215.895 825.935C216.005 825.866 216.061 825.756 216.061 825.602V825.572C216.061 825.2 215.956 824.912 215.745 824.707C215.538 824.503 215.228 824.401 214.816 824.401C214.387 824.401 214.049 824.496 213.802 824.686C213.558 824.874 213.389 825.082 213.295 825.312L212.098 825.04C212.24 824.642 212.447 824.321 212.72 824.077C212.995 823.83 213.312 823.651 213.67 823.54C214.028 823.426 214.404 823.369 214.799 823.369C215.061 823.369 215.338 823.401 215.63 823.463C215.926 823.523 216.201 823.634 216.457 823.795C216.716 823.957 216.927 824.189 217.092 824.49C217.257 824.788 217.339 825.176 217.339 825.653V830H216.095V829.105H216.044C215.961 829.27 215.838 829.432 215.673 829.591C215.508 829.75 215.297 829.882 215.038 829.987C214.779 830.092 214.47 830.145 214.109 830.145ZM214.386 829.122C214.738 829.122 215.039 829.053 215.289 828.913C215.542 828.774 215.734 828.592 215.865 828.368C215.998 828.141 216.065 827.898 216.065 827.639V826.795C216.02 826.841 215.931 826.884 215.801 826.923C215.673 826.96 215.527 826.993 215.362 827.021C215.197 827.047 215.037 827.071 214.88 827.094C214.724 827.114 214.593 827.131 214.488 827.145C214.241 827.176 214.015 827.229 213.811 827.303C213.609 827.376 213.447 827.483 213.325 827.622C213.206 827.759 213.146 827.94 213.146 828.168C213.146 828.483 213.262 828.722 213.495 828.884C213.728 829.043 214.025 829.122 214.386 829.122ZM222.092 823.455V824.477H218.516V823.455H222.092ZM219.475 821.886H220.749V828.078C220.749 828.325 220.786 828.511 220.86 828.636C220.934 828.759 221.029 828.842 221.146 828.888C221.265 828.93 221.394 828.952 221.533 828.952C221.636 828.952 221.725 828.945 221.802 828.93C221.879 828.916 221.938 828.905 221.981 828.896L222.211 829.949C222.137 829.977 222.032 830.006 221.896 830.034C221.759 830.065 221.589 830.082 221.384 830.085C221.049 830.091 220.737 830.031 220.447 829.906C220.157 829.781 219.923 829.588 219.744 829.327C219.565 829.065 219.475 828.737 219.475 828.342V821.886ZM226.252 830.132C225.607 830.132 225.051 829.994 224.586 829.719C224.123 829.44 223.765 829.05 223.512 828.547C223.262 828.041 223.137 827.449 223.137 826.77C223.137 826.099 223.262 825.509 223.512 824.997C223.765 824.486 224.117 824.087 224.569 823.8C225.023 823.513 225.554 823.369 226.162 823.369C226.532 823.369 226.89 823.43 227.236 823.553C227.583 823.675 227.894 823.866 228.169 824.128C228.445 824.389 228.662 824.729 228.821 825.146C228.98 825.561 229.06 826.065 229.06 826.659V827.111H223.857V826.156H227.811C227.811 825.821 227.743 825.524 227.607 825.266C227.471 825.004 227.279 824.798 227.032 824.648C226.787 824.497 226.5 824.422 226.171 824.422C225.813 824.422 225.5 824.51 225.233 824.686C224.969 824.859 224.765 825.087 224.62 825.368C224.478 825.646 224.407 825.949 224.407 826.276V827.021C224.407 827.459 224.483 827.831 224.637 828.138C224.793 828.445 225.01 828.679 225.289 828.841C225.567 829 225.892 829.08 226.265 829.08C226.506 829.08 226.726 829.045 226.925 828.977C227.124 828.906 227.296 828.801 227.441 828.662C227.586 828.523 227.696 828.351 227.773 828.146L228.979 828.364C228.882 828.719 228.709 829.03 228.459 829.297C228.212 829.561 227.901 829.767 227.526 829.915C227.154 830.06 226.729 830.132 226.252 830.132ZM231.313 830.081C231.08 830.081 230.88 829.999 230.712 829.834C230.545 829.666 230.461 829.464 230.461 829.229C230.461 828.996 230.545 828.797 230.712 828.632C230.88 828.464 231.08 828.381 231.313 828.381C231.546 828.381 231.746 828.464 231.914 828.632C232.082 828.797 232.165 828.996 232.165 829.229C232.165 829.385 232.126 829.528 232.046 829.659C231.969 829.787 231.867 829.889 231.739 829.966C231.612 830.043 231.469 830.081 231.313 830.081ZM237.01 830V821.273H238.326V828.866H242.281V830H237.01ZM246.502 830.132C245.857 830.132 245.301 829.994 244.836 829.719C244.373 829.44 244.015 829.05 243.762 828.547C243.512 828.041 243.387 827.449 243.387 826.77C243.387 826.099 243.512 825.509 243.762 824.997C244.015 824.486 244.367 824.087 244.819 823.8C245.273 823.513 245.804 823.369 246.412 823.369C246.782 823.369 247.14 823.43 247.486 823.553C247.833 823.675 248.144 823.866 248.419 824.128C248.695 824.389 248.912 824.729 249.071 825.146C249.23 825.561 249.31 826.065 249.31 826.659V827.111H244.107V826.156H248.061C248.061 825.821 247.993 825.524 247.857 825.266C247.721 825.004 247.529 824.798 247.282 824.648C247.037 824.497 246.75 824.422 246.421 824.422C246.063 824.422 245.75 824.51 245.483 824.686C245.219 824.859 245.015 825.087 244.87 825.368C244.728 825.646 244.657 825.949 244.657 826.276V827.021C244.657 827.459 244.733 827.831 244.887 828.138C245.043 828.445 245.26 828.679 245.539 828.841C245.817 829 246.142 829.08 246.515 829.08C246.756 829.08 246.976 829.045 247.175 828.977C247.374 828.906 247.546 828.801 247.691 828.662C247.836 828.523 247.946 828.351 248.023 828.146L249.229 828.364C249.132 828.719 248.959 829.03 248.709 829.297C248.462 829.561 248.151 829.767 247.776 829.915C247.404 830.06 246.979 830.132 246.502 830.132ZM252.629 830.145C252.214 830.145 251.839 830.068 251.504 829.915C251.168 829.759 250.903 829.533 250.707 829.237C250.513 828.942 250.417 828.58 250.417 828.151C250.417 827.781 250.488 827.477 250.63 827.239C250.772 827 250.964 826.811 251.205 826.672C251.447 826.533 251.717 826.428 252.015 826.357C252.313 826.286 252.617 826.232 252.927 826.195C253.319 826.149 253.637 826.112 253.881 826.084C254.126 826.053 254.303 826.003 254.414 825.935C254.525 825.866 254.58 825.756 254.58 825.602V825.572C254.58 825.2 254.475 824.912 254.265 824.707C254.058 824.503 253.748 824.401 253.336 824.401C252.907 824.401 252.569 824.496 252.322 824.686C252.077 824.874 251.908 825.082 251.815 825.312L250.617 825.04C250.759 824.642 250.967 824.321 251.239 824.077C251.515 823.83 251.832 823.651 252.19 823.54C252.548 823.426 252.924 823.369 253.319 823.369C253.58 823.369 253.857 823.401 254.15 823.463C254.445 823.523 254.721 823.634 254.977 823.795C255.235 823.957 255.447 824.189 255.612 824.49C255.776 824.788 255.859 825.176 255.859 825.653V830H254.614V829.105H254.563C254.481 829.27 254.357 829.432 254.192 829.591C254.028 829.75 253.816 829.882 253.558 829.987C253.299 830.092 252.989 830.145 252.629 830.145ZM252.906 829.122C253.258 829.122 253.559 829.053 253.809 828.913C254.062 828.774 254.254 828.592 254.384 828.368C254.518 828.141 254.585 827.898 254.585 827.639V826.795C254.539 826.841 254.451 826.884 254.32 826.923C254.192 826.96 254.046 826.993 253.881 827.021C253.717 827.047 253.556 827.071 253.4 827.094C253.244 827.114 253.113 827.131 253.008 827.145C252.761 827.176 252.535 827.229 252.33 827.303C252.129 827.376 251.967 827.483 251.844 827.622C251.725 827.759 251.665 827.94 251.665 828.168C251.665 828.483 251.782 828.722 252.015 828.884C252.248 829.043 252.545 829.122 252.906 829.122ZM257.556 830V823.455H258.787V824.494H258.855C258.975 824.142 259.185 823.865 259.486 823.663C259.79 823.459 260.134 823.357 260.517 823.357C260.597 823.357 260.691 823.359 260.799 823.365C260.909 823.371 260.996 823.378 261.059 823.386V824.605C261.007 824.591 260.917 824.575 260.786 824.558C260.655 824.538 260.525 824.528 260.394 824.528C260.093 824.528 259.824 824.592 259.588 824.72C259.355 824.845 259.171 825.02 259.034 825.244C258.898 825.466 258.83 825.719 258.83 826.003V830H257.556ZM263.435 826.114V830H262.161V823.455H263.384V824.52H263.465C263.616 824.173 263.852 823.895 264.173 823.685C264.496 823.474 264.904 823.369 265.396 823.369C265.842 823.369 266.232 823.463 266.567 823.651C266.903 823.835 267.163 824.111 267.347 824.477C267.532 824.844 267.624 825.297 267.624 825.837V830H266.35V825.99C266.35 825.516 266.227 825.145 265.979 824.878C265.732 824.608 265.393 824.473 264.961 824.473C264.665 824.473 264.403 824.537 264.173 824.665C263.945 824.793 263.765 824.98 263.631 825.227C263.501 825.472 263.435 825.767 263.435 826.114ZM272.509 830V823.455H273.732V824.52H273.813C273.949 824.159 274.172 823.878 274.482 823.676C274.792 823.472 275.162 823.369 275.594 823.369C276.032 823.369 276.398 823.472 276.694 823.676C276.992 823.881 277.212 824.162 277.354 824.52H277.422C277.578 824.17 277.827 823.892 278.168 823.685C278.509 823.474 278.915 823.369 279.387 823.369C279.98 823.369 280.465 823.555 280.84 823.928C281.218 824.3 281.407 824.861 281.407 825.611V830H280.132V825.73C280.132 825.287 280.012 824.966 279.77 824.767C279.529 824.568 279.24 824.469 278.905 824.469C278.49 824.469 278.168 824.597 277.938 824.852C277.708 825.105 277.593 825.43 277.593 825.828V830H276.323V825.649C276.323 825.294 276.212 825.009 275.99 824.793C275.769 824.577 275.48 824.469 275.125 824.469C274.884 824.469 274.661 824.533 274.456 824.661C274.255 824.786 274.091 824.96 273.966 825.185C273.844 825.409 273.783 825.669 273.783 825.964V830H272.509ZM285.871 830.132C285.258 830.132 284.722 829.991 284.265 829.71C283.808 829.429 283.452 829.036 283.2 828.53C282.947 828.024 282.82 827.433 282.82 826.757C282.82 826.078 282.947 825.484 283.2 824.976C283.452 824.467 283.808 824.072 284.265 823.791C284.722 823.51 285.258 823.369 285.871 823.369C286.485 823.369 287.021 823.51 287.478 823.791C287.935 824.072 288.29 824.467 288.543 824.976C288.796 825.484 288.923 826.078 288.923 826.757C288.923 827.433 288.796 828.024 288.543 828.53C288.29 829.036 287.935 829.429 287.478 829.71C287.021 829.991 286.485 830.132 285.871 830.132ZM285.876 829.062C286.273 829.062 286.603 828.957 286.864 828.747C287.126 828.537 287.319 828.257 287.444 827.908C287.572 827.558 287.636 827.173 287.636 826.753C287.636 826.335 287.572 825.952 287.444 825.602C287.319 825.25 287.126 824.967 286.864 824.754C286.603 824.541 286.273 824.435 285.876 824.435C285.475 824.435 285.143 824.541 284.879 824.754C284.617 824.967 284.423 825.25 284.295 825.602C284.17 825.952 284.107 826.335 284.107 826.753C284.107 827.173 284.17 827.558 284.295 827.908C284.423 828.257 284.617 828.537 284.879 828.747C285.143 828.957 285.475 829.062 285.876 829.062ZM290.345 830V823.455H291.576V824.494H291.645C291.764 824.142 291.974 823.865 292.275 823.663C292.579 823.459 292.923 823.357 293.306 823.357C293.386 823.357 293.48 823.359 293.588 823.365C293.699 823.371 293.785 823.378 293.848 823.386V824.605C293.797 824.591 293.706 824.575 293.575 824.558C293.444 824.538 293.314 824.528 293.183 824.528C292.882 824.528 292.613 824.592 292.377 824.72C292.145 824.845 291.96 825.02 291.824 825.244C291.687 825.466 291.619 825.719 291.619 826.003V830H290.345ZM297.537 830.132C296.892 830.132 296.337 829.994 295.871 829.719C295.408 829.44 295.05 829.05 294.797 828.547C294.547 828.041 294.422 827.449 294.422 826.77C294.422 826.099 294.547 825.509 294.797 824.997C295.05 824.486 295.402 824.087 295.854 823.8C296.308 823.513 296.839 823.369 297.447 823.369C297.817 823.369 298.175 823.43 298.521 823.553C298.868 823.675 299.179 823.866 299.455 824.128C299.73 824.389 299.947 824.729 300.107 825.146C300.266 825.561 300.345 826.065 300.345 826.659V827.111H295.142V826.156H299.097C299.097 825.821 299.028 825.524 298.892 825.266C298.756 825.004 298.564 824.798 298.317 824.648C298.072 824.497 297.786 824.422 297.456 824.422C297.098 824.422 296.786 824.51 296.518 824.686C296.254 824.859 296.05 825.087 295.905 825.368C295.763 825.646 295.692 825.949 295.692 826.276V827.021C295.692 827.459 295.768 827.831 295.922 828.138C296.078 828.445 296.295 828.679 296.574 828.841C296.852 829 297.178 829.08 297.55 829.08C297.791 829.08 298.011 829.045 298.21 828.977C298.409 828.906 298.581 828.801 298.726 828.662C298.871 828.523 298.982 828.351 299.058 828.146L300.264 828.364C300.168 828.719 299.994 829.03 299.744 829.297C299.497 829.561 299.186 829.767 298.811 829.915C298.439 830.06 298.014 830.132 297.537 830.132ZM302.598 830.081C302.365 830.081 302.165 829.999 301.998 829.834C301.83 829.666 301.746 829.464 301.746 829.229C301.746 828.996 301.83 828.797 301.998 828.632C302.165 828.464 302.365 828.381 302.598 828.381C302.831 828.381 303.032 828.464 303.199 828.632C303.367 828.797 303.451 828.996 303.451 829.229C303.451 829.385 303.411 829.528 303.331 829.659C303.255 829.787 303.152 829.889 303.025 829.966C302.897 830.043 302.755 830.081 302.598 830.081ZM305.397 821.273V822.091C305.397 822.332 305.352 822.587 305.261 822.854C305.173 823.118 305.048 823.372 304.886 823.616C304.724 823.861 304.533 824.071 304.315 824.247L303.684 823.795C303.852 823.551 303.996 823.291 304.119 823.016C304.244 822.74 304.306 822.436 304.306 822.104V821.273H305.397ZM307.566 821.273V822.091C307.566 822.332 307.521 822.587 307.43 822.854C307.342 823.118 307.217 823.372 307.055 823.616C306.893 823.861 306.702 824.071 306.484 824.247L305.853 823.795C306.021 823.551 306.165 823.291 306.288 823.016C306.413 822.74 306.475 822.436 306.475 822.104V821.273H307.566Z" fill="#2B2B2B"/>
<mask id="mask0_165_4319" style="mask-type:luminance" maskUnits="userSpaceOnUse" x="145" y="128" width="54" height="54">
<path d="M145 128H198.495V181.974H145V128Z" fill="white"/>
</mask>
<g mask="url(#mask0_165_4319)">
<path fill-rule="evenodd" clip-rule="evenodd" d="M172.526 155.526V155.76C172.526 160.755 173.969 166.031 176.292 170.125C177.661 172.542 179.318 174.505 181.167 175.688C182.823 176.755 184.62 177.203 186.469 176.729C187.885 176.375 189.38 175.453 190.917 173.911C192.479 172.354 193.38 170.859 193.734 169.464C194.208 167.62 193.781 165.818 192.693 164.161C191.484 162.318 189.521 160.661 187.13 159.286C183.036 156.943 177.755 155.526 172.74 155.526H172.526ZM196.172 128C197.307 128 198.229 128.922 198.229 130.057C198.229 131.193 197.307 132.115 196.172 132.115C189.641 132.115 183.724 134.766 179.438 139.052C176.125 142.365 173.807 146.651 172.906 151.427C178.536 151.453 184.505 153.089 189.141 155.74C192.099 157.417 194.563 159.547 196.125 161.938C197.802 164.516 198.49 167.427 197.688 170.484C197.141 172.589 195.885 174.74 193.802 176.823C191.724 178.906 189.594 180.161 187.464 180.708C184.406 181.51 181.495 180.823 178.917 179.146C176.505 177.583 174.396 175.12 172.719 172.161C170.068 167.521 168.432 161.557 168.411 155.927C163.63 156.828 159.344 159.146 156.031 162.458C151.745 166.745 149.099 172.661 149.099 179.193C149.099 180.328 148.172 181.25 147.036 181.25C145.927 181.229 145 180.302 145 179.167C145 171.5 148.104 164.563 153.146 159.547C157.26 155.427 162.682 152.589 168.719 151.714C169.594 145.677 172.432 140.26 176.552 136.141C181.568 131.099 188.505 128 196.172 128Z" fill="#00757F"/>
</g>
<path fill-rule="evenodd" clip-rule="evenodd" d="M157.286 133.255C155.484 133.255 153.687 133.938 152.318 135.313C150.943 136.682 150.255 138.484 150.255 140.281C150.255 142.083 150.943 143.88 152.318 145.25C153.687 146.625 155.484 147.313 157.286 147.313C159.083 147.313 160.885 146.625 162.255 145.25C163.63 143.88 164.313 142.083 164.313 140.281C164.313 138.484 163.63 136.682 162.255 135.313C160.885 133.938 159.083 133.255 157.286 133.255ZM149.406 132.401C151.583 130.224 154.422 129.135 157.286 129.135C160.125 129.135 162.99 130.224 165.167 132.401C167.344 134.578 168.432 137.417 168.432 140.281C168.432 143.12 167.344 145.984 165.167 148.161C162.99 150.339 160.125 151.406 157.286 151.406C154.443 151.406 151.583 150.318 149.406 148.141C147.229 145.984 146.141 143.12 146.141 140.281C146.141 137.417 147.229 134.578 149.406 132.401Z" fill="#00757F"/>
<mask id="mask1_165_4319" style="mask-type:luminance" maskUnits="userSpaceOnUse" x="202" y="128" width="54" height="54">
<path d="M202.495 128H256V181.974H202.495V128Z" fill="white"/>
</mask>
<g mask="url(#mask1_165_4319)">
<path fill-rule="evenodd" clip-rule="evenodd" d="M228.36 155.526H228.12C223.13 155.526 217.849 156.969 213.735 159.286C211.318 160.661 209.354 162.318 208.172 164.161C207.104 165.818 206.656 167.62 207.13 169.464C207.485 170.885 208.406 172.375 209.943 173.911C211.505 175.474 213 176.375 214.396 176.729C216.24 177.203 218.042 176.776 219.698 175.687C221.542 174.479 223.198 172.516 224.573 170.125C226.917 166.031 228.333 160.755 228.333 155.76L228.36 155.526ZM255.886 179.167C255.886 180.302 254.958 181.229 253.823 181.229C252.688 181.229 251.766 180.302 251.766 179.167C251.766 172.635 249.115 166.719 244.833 162.437C241.516 159.12 237.235 156.802 232.453 155.901C232.427 161.536 230.797 167.5 228.146 172.141C226.464 175.099 224.333 177.557 221.943 179.12C219.344 180.802 216.453 181.49 213.401 180.682C211.297 180.141 209.141 178.885 207.057 176.802C204.974 174.719 203.719 172.589 203.177 170.458C202.37 167.406 203.057 164.495 204.74 161.917C206.302 159.5 208.761 157.396 211.719 155.714C216.36 153.062 222.323 151.427 227.958 151.406C227.057 146.625 224.74 142.344 221.422 139.026C217.141 134.745 211.224 132.094 204.693 132.094C203.557 132.094 202.63 131.172 202.63 130.036C202.63 128.896 203.557 127.974 204.693 127.974C212.36 127.974 219.292 131.078 224.313 136.115C228.427 140.234 231.271 145.656 232.146 151.687C238.182 152.568 243.599 155.406 247.719 159.526C252.761 164.562 255.886 171.5 255.886 179.167Z" fill="#00757F"/>
</g>
<path fill-rule="evenodd" clip-rule="evenodd" d="M250.63 140.281C250.63 138.484 249.943 136.682 248.573 135.313C247.198 133.938 245.401 133.255 243.599 133.255C241.802 133.255 240.005 133.938 238.63 135.313C237.255 136.682 236.573 138.484 236.573 140.281C236.573 142.083 237.255 143.88 238.63 145.25C240.005 146.625 241.802 147.313 243.599 147.313C245.401 147.313 247.198 146.625 248.573 145.25C249.943 143.88 250.63 142.083 250.63 140.281ZM251.479 132.401C253.661 134.578 254.75 137.417 254.75 140.281C254.75 143.12 253.661 145.984 251.479 148.161C249.302 150.339 246.464 151.427 243.599 151.427C240.76 151.427 237.896 150.339 235.719 148.161C233.542 145.984 232.453 143.146 232.453 140.281C232.453 137.443 233.542 134.578 235.719 132.401C237.896 130.224 240.734 129.135 243.599 129.135C246.443 129.135 249.302 130.224 251.479 132.401Z" fill="#00757F"/>
<mask id="mask2_165_4319" style="mask-type:luminance" maskUnits="userSpaceOnUse" x="145" y="183" width="54" height="56">
<path d="M145 183.974H198.495V238.333H145V183.974Z" fill="white"/>
</mask>
<g mask="url(#mask2_165_4319)">
<path fill-rule="evenodd" clip-rule="evenodd" d="M172.526 210.687H172.766C177.755 210.687 183.036 209.245 187.151 206.927C189.568 205.552 191.531 203.896 192.714 202.052C193.781 200.396 194.229 198.594 193.755 196.75C193.401 195.328 192.479 193.839 190.943 192.297C189.38 190.74 187.885 189.839 186.49 189.484C184.646 189.01 182.844 189.437 181.188 190.526C179.344 191.729 177.688 193.698 176.313 196.089C173.969 200.182 172.552 205.458 172.552 210.474L172.526 210.687ZM145 187.047C145 185.911 145.927 184.984 147.063 184.984C148.198 184.984 149.12 185.911 149.12 187.047C149.12 193.578 151.771 199.495 156.057 203.776C159.37 207.094 163.651 209.411 168.432 210.312C168.458 204.677 170.089 198.714 172.74 194.073C174.422 191.115 176.552 188.656 178.943 187.094C181.547 185.411 184.432 184.724 187.484 185.531C189.594 186.073 191.745 187.328 193.828 189.411C195.911 191.495 197.167 193.625 197.708 195.755C198.516 198.807 197.828 201.719 196.146 204.297C194.583 206.714 192.125 208.818 189.167 210.5C184.526 213.151 178.563 214.781 172.927 214.807C173.828 219.589 176.146 223.87 179.464 227.182C183.745 231.469 189.661 234.12 196.193 234.12C197.328 234.12 198.255 235.042 198.255 236.177C198.255 237.312 197.328 238.24 196.193 238.24C188.526 238.24 181.594 235.135 176.573 230.094C172.458 225.979 169.615 220.557 168.74 214.521C162.703 213.646 157.286 210.807 153.167 206.687C148.104 201.646 145 194.714 145 187.047Z" fill="#00757F"/>
</g>
<path fill-rule="evenodd" clip-rule="evenodd" d="M150.255 225.932C150.255 227.729 150.943 229.526 152.318 230.901C153.687 232.271 155.484 232.958 157.286 232.958C159.083 232.958 160.885 232.271 162.255 230.901C163.63 229.526 164.313 227.729 164.313 225.932C164.313 224.13 163.63 222.333 162.255 220.958C160.885 219.589 159.083 218.901 157.286 218.901C155.484 218.901 153.687 219.589 152.318 220.958C150.943 222.333 150.255 224.13 150.255 225.932ZM149.406 233.813C147.229 231.635 146.141 228.797 146.141 225.932C146.141 223.089 147.229 220.229 149.406 218.047C151.583 215.87 154.422 214.781 157.286 214.781C160.125 214.781 162.99 215.87 165.167 218.047C167.344 220.229 168.432 223.068 168.432 225.932C168.432 228.771 167.344 231.635 165.167 233.813C162.99 235.99 160.151 237.078 157.286 237.078C154.422 237.078 151.583 235.99 149.406 233.813Z" fill="#00757F"/>
<mask id="mask3_165_4319" style="mask-type:luminance" maskUnits="userSpaceOnUse" x="202" y="183" width="54" height="56">
<path d="M202.495 183.974H256V238.333H202.495V183.974Z" fill="white"/>
</mask>
<g mask="url(#mask3_165_4319)">
<path fill-rule="evenodd" clip-rule="evenodd" d="M228.359 210.687V210.453C228.359 205.458 226.917 200.182 224.594 196.062C223.224 193.646 221.542 191.682 219.719 190.5C218.062 189.437 216.266 188.984 214.417 189.458C213 189.812 211.505 190.74 209.969 192.276C208.406 193.839 207.505 195.328 207.151 196.724C206.677 198.573 207.104 200.37 208.193 202.026C209.375 203.875 211.365 205.531 213.755 206.901C217.849 209.245 223.13 210.667 228.146 210.667L228.359 210.687ZM204.714 238.214C203.578 238.214 202.656 237.292 202.656 236.156C202.656 235.021 203.578 234.094 204.714 234.094C211.245 234.094 217.161 231.443 221.448 227.161C224.76 223.849 227.078 219.562 227.979 214.781C222.349 214.76 216.385 213.125 211.745 210.474C208.786 208.797 206.323 206.667 204.76 204.276C203.083 201.672 202.396 198.786 203.198 195.729C203.745 193.625 205 191.469 207.083 189.391C209.167 187.307 211.297 186.052 213.422 185.505C216.479 184.703 219.391 185.391 221.969 187.068C224.38 188.63 226.49 191.094 228.167 194.052C230.818 198.687 232.453 204.651 232.5 210.286C237.281 209.385 241.563 207.068 244.88 203.755C249.161 199.469 251.813 193.552 251.813 187.021C251.813 185.885 252.734 184.964 253.87 184.964C255.01 184.964 255.932 185.885 255.932 187.021C255.932 194.687 252.828 201.625 247.792 206.641C243.672 210.76 238.25 213.599 232.219 214.474C231.339 220.51 228.5 225.932 224.38 230.047C219.318 235.089 212.385 238.214 204.714 238.214Z" fill="#00757F"/>
</g>
<path fill-rule="evenodd" clip-rule="evenodd" d="M243.599 232.958C245.401 232.958 247.198 232.271 248.573 230.901C249.943 229.526 250.63 227.729 250.63 225.932C250.63 224.13 249.943 222.333 248.573 220.958C247.198 219.589 245.401 218.901 243.599 218.901C241.802 218.901 240.005 219.589 238.63 220.958C237.255 222.333 236.573 224.13 236.573 225.932C236.573 227.729 237.255 229.526 238.63 230.901C240.005 232.271 241.802 232.958 243.599 232.958ZM251.479 233.813C249.302 235.99 246.464 237.078 243.599 237.078C240.76 237.078 237.896 235.99 235.719 233.813C233.542 231.635 232.453 228.797 232.453 225.932C232.453 223.089 233.542 220.229 235.719 218.047C237.896 215.87 240.734 214.781 243.599 214.781C246.443 214.781 249.302 215.87 251.479 218.047C253.661 220.229 254.75 223.068 254.75 225.932C254.75 228.771 253.661 231.635 251.479 233.813Z" fill="#00757F"/>
<path d="M104.3 261.333C106.685 261.333 108.831 261.698 110.738 262.417C112.654 263.141 114.175 264.208 115.3 265.625C116.425 267.042 116.988 268.766 116.988 270.792H109.342C109.342 269.75 108.873 268.911 107.946 268.271C107.029 267.635 105.915 267.313 104.613 267.313C102.722 267.313 101.29 267.823 100.321 268.833C99.3625 269.833 98.8834 271.25 98.8834 273.083V275.396C98.8834 277.245 99.3625 278.667 100.321 279.667C101.29 280.667 102.722 281.167 104.613 281.167C105.915 281.167 107.029 280.865 107.946 280.25C108.873 279.641 109.342 278.849 109.342 277.875H103.675V272.792H116.988V286.729H112.863L112.05 284.271C109.784 286.203 106.81 287.167 103.133 287.167C98.9928 287.167 95.8834 286.083 93.8 283.917C91.7167 281.75 90.675 278.531 90.675 274.25C90.675 270.016 91.8521 266.807 94.2167 264.625C96.5761 262.432 99.9355 261.333 104.3 261.333Z" fill="#2B2B2B"/>
<path d="M147.537 276.667C147.537 280.083 146.458 282.688 144.307 284.479C142.151 286.271 139.089 287.167 135.12 287.167C131.162 287.167 128.099 286.271 125.932 284.479C123.766 282.688 122.682 280.083 122.682 276.667V261.771H130.703V276.563C130.703 277.969 131.078 279.083 131.828 279.917C132.578 280.75 133.667 281.167 135.099 281.167C136.516 281.167 137.604 280.75 138.37 279.917C139.13 279.073 139.516 277.953 139.516 276.563V261.771H147.537V276.667Z" fill="#2B2B2B"/>
<path d="M170.356 286.729L169.294 283.208H160.565L159.502 286.729H151.294L160.419 261.771H169.731L178.856 286.729H170.356ZM162.231 277.625H167.627L165.023 268.729H164.877L162.231 277.625Z" fill="#2B2B2B"/>
<path d="M206.264 269.417C206.264 270.948 205.853 272.328 205.035 273.563C204.212 274.786 203.02 275.688 201.452 276.271L206.994 286.729H197.994L193.577 277.625H190.598V286.729H182.577V261.771H197.848C199.639 261.771 201.165 262.12 202.431 262.813C203.707 263.495 204.665 264.427 205.306 265.604C205.941 266.771 206.264 268.042 206.264 269.417ZM198.098 269.75C198.098 269.099 197.879 268.557 197.452 268.125C197.02 267.682 196.483 267.458 195.848 267.458H190.598V272.063H195.848C196.483 272.063 197.02 271.844 197.452 271.396C197.879 270.953 198.098 270.406 198.098 269.75Z" fill="#2B2B2B"/>
<path d="M222.339 261.771C231.073 261.771 235.443 265.932 235.443 274.25C235.443 282.573 231.073 286.729 222.339 286.729H211.527V261.771H222.339ZM219.547 280.75H222.193C225.553 280.75 227.235 278.948 227.235 275.333V273.146C227.235 269.552 225.553 267.75 222.193 267.75H219.547V280.75Z" fill="#2B2B2B"/>
<path d="M240.83 286.729V261.771H248.851V286.729H240.83Z" fill="#2B2B2B"/>
<path d="M272.043 286.729L270.981 283.208H262.252L261.189 286.729H252.981L262.106 261.771H271.418L280.543 286.729H272.043ZM263.918 277.625H269.314L266.71 268.729H266.564L263.918 277.625Z" fill="#2B2B2B"/>
<path d="M302.118 286.729L291.639 274.604V286.729H284.264V261.771H291.264L301.764 274.063V261.771H309.118V286.729H302.118Z" fill="#2B2B2B"/>
<path d="M47.531 326.721C46.0831 326.721 44.7654 326.388 43.5727 325.721C42.3904 325.044 41.4529 324.096 40.7602 322.888C40.0623 321.679 39.7185 320.32 39.7185 318.804C39.7185 317.278 40.0623 315.908 40.7602 314.7C41.4529 313.492 42.3904 312.554 43.5727 311.888C44.7654 311.211 46.0831 310.867 47.531 310.867C48.9737 310.867 50.2914 311.211 51.4893 311.888C52.682 312.554 53.6195 313.492 54.3018 314.7C54.9789 315.898 55.3227 317.263 55.3227 318.804C55.3227 320.336 54.9789 321.7 54.3018 322.908C53.6195 324.106 52.682 325.044 51.4893 325.721C50.2914 326.388 48.9737 326.721 47.531 326.721ZM47.531 324.971C48.6143 324.971 49.5831 324.721 50.4477 324.221C51.3227 323.711 52.0102 322.987 52.5102 322.054C53.0102 321.112 53.2602 320.028 53.2602 318.804C53.2602 317.554 53.0102 316.466 52.5102 315.533C52.0102 314.606 51.3279 313.888 50.4685 313.388C49.6039 312.877 48.6248 312.617 47.531 312.617C46.4164 312.617 45.432 312.877 44.5727 313.388C43.7081 313.888 43.031 314.606 42.531 315.533C42.0414 316.466 41.8018 317.554 41.8018 318.804C41.8018 320.028 42.0414 321.112 42.531 322.054C43.031 322.987 43.7081 323.711 44.5727 324.221C45.4477 324.721 46.432 324.971 47.531 324.971Z" fill="#4E5A65"/>
<path d="M71.9507 311.033L66.0757 326.575H63.7424L57.8882 311.033H60.034L64.9299 324.429L69.8049 311.033H71.9507Z" fill="#4E5A65"/>
<path d="M77.3151 312.679V317.888H82.9818V319.554H77.3151V324.908H83.6484V326.575H75.2734V311.013H83.6484V312.679H77.3151Z" fill="#4E5A65"/>
<path d="M96.0061 326.575L92.2978 320.221H89.8603V326.575H87.8186V311.033H92.8394C94.0165 311.033 95.0113 311.237 95.8186 311.638C96.6207 312.044 97.2249 312.586 97.6311 313.263C98.0321 313.945 98.2353 314.731 98.2353 315.617C98.2353 316.69 97.9228 317.632 97.2978 318.45C96.6832 319.257 95.7613 319.799 94.5269 320.075L98.4436 326.575H96.0061ZM89.8603 318.596H92.8394C93.9332 318.596 94.7613 318.325 95.3186 317.783C95.8707 317.242 96.1519 316.523 96.1519 315.617C96.1519 314.69 95.8707 313.971 95.3186 313.471C94.7769 312.961 93.9488 312.7 92.8394 312.7H89.8603V318.596Z" fill="#4E5A65"/>
<path d="M107.335 311.033C109.027 311.033 110.491 311.356 111.73 311.992C112.965 312.617 113.908 313.523 114.564 314.7C115.23 315.867 115.564 317.252 115.564 318.846C115.564 320.429 115.23 321.804 114.564 322.971C113.908 324.138 112.965 325.033 111.73 325.658C110.491 326.273 109.027 326.575 107.335 326.575H102.48V311.033H107.335ZM107.335 324.908C109.335 324.908 110.861 324.382 111.918 323.325C112.97 322.257 113.501 320.763 113.501 318.846C113.501 316.919 112.965 315.408 111.897 314.325C110.84 313.231 109.319 312.679 107.335 312.679H104.522V324.908H107.335Z" fill="#4E5A65"/>
<path d="M126.411 326.721C124.963 326.721 123.645 326.388 122.452 325.721C121.27 325.044 120.333 324.096 119.64 322.888C118.942 321.679 118.598 320.32 118.598 318.804C118.598 317.278 118.942 315.908 119.64 314.7C120.333 313.492 121.27 312.554 122.452 311.888C123.645 311.211 124.963 310.867 126.411 310.867C127.853 310.867 129.171 311.211 130.369 311.888C131.562 312.554 132.499 313.492 133.181 314.7C133.859 315.898 134.202 317.263 134.202 318.804C134.202 320.336 133.859 321.7 133.181 322.908C132.499 324.106 131.562 325.044 130.369 325.721C129.171 326.388 127.853 326.721 126.411 326.721ZM126.411 324.971C127.494 324.971 128.463 324.721 129.327 324.221C130.202 323.711 130.89 322.987 131.39 322.054C131.89 321.112 132.14 320.028 132.14 318.804C132.14 317.554 131.89 316.466 131.39 315.533C130.89 314.606 130.208 313.888 129.348 313.388C128.484 312.877 127.504 312.617 126.411 312.617C125.296 312.617 124.312 312.877 123.452 313.388C122.588 313.888 121.911 314.606 121.411 315.533C120.921 316.466 120.681 317.554 120.681 318.804C120.681 320.028 120.921 321.112 121.411 322.054C121.911 322.987 122.588 323.711 123.452 324.221C124.327 324.721 125.312 324.971 126.411 324.971Z" fill="#4E5A65"/>
<path d="M142.913 326.721C141.882 326.721 140.96 326.544 140.142 326.179C139.335 325.82 138.705 325.32 138.247 324.679C137.788 324.028 137.549 323.278 137.538 322.429H139.705C139.773 323.153 140.07 323.763 140.601 324.263C141.127 324.763 141.898 325.013 142.913 325.013C143.872 325.013 144.627 324.778 145.184 324.304C145.752 323.82 146.038 323.195 146.038 322.429C146.038 321.836 145.872 321.356 145.538 320.992C145.215 320.617 144.809 320.336 144.309 320.138C143.82 319.945 143.163 319.737 142.33 319.513C141.299 319.252 140.476 318.987 139.851 318.721C139.236 318.445 138.71 318.023 138.267 317.45C137.835 316.882 137.622 316.112 137.622 315.138C137.622 314.294 137.835 313.544 138.267 312.888C138.695 312.237 139.299 311.737 140.08 311.388C140.872 311.028 141.767 310.846 142.767 310.846C144.226 310.846 145.419 311.211 146.351 311.929C147.278 312.653 147.809 313.617 147.934 314.825H145.705C145.622 314.231 145.299 313.711 144.747 313.263C144.205 312.804 143.481 312.575 142.58 312.575C141.731 312.575 141.038 312.799 140.497 313.242C139.965 313.674 139.705 314.283 139.705 315.075C139.705 315.648 139.861 316.112 140.184 316.471C140.502 316.82 140.892 317.091 141.351 317.283C141.82 317.466 142.481 317.674 143.33 317.908C144.356 318.19 145.184 318.466 145.809 318.742C146.434 319.023 146.965 319.445 147.413 320.013C147.856 320.586 148.08 321.362 148.08 322.346C148.08 323.096 147.877 323.815 147.476 324.492C147.07 325.158 146.476 325.7 145.684 326.117C144.903 326.523 143.981 326.721 142.913 326.721Z" fill="#4E5A65"/>
<path d="M154.212 312.679V317.888H159.878V319.554H154.212V324.908H160.545V326.575H152.17V311.013H160.545V312.679H154.212Z" fill="#4E5A65"/>
<path d="M182.175 315.575C182.175 316.882 181.727 317.966 180.842 318.825C179.967 319.674 178.618 320.096 176.8 320.096H173.821V326.575H171.779V311.033H176.8C178.55 311.033 179.883 311.461 180.8 312.304C181.717 313.153 182.175 314.242 182.175 315.575ZM176.8 318.408C177.925 318.408 178.758 318.169 179.3 317.679C179.842 317.195 180.112 316.492 180.112 315.575C180.112 313.658 179.008 312.7 176.8 312.7H173.821V318.408H176.8Z" fill="#4E5A65"/>
<path d="M193.982 326.575L190.274 320.221H187.836V326.575H185.795V311.033H190.816C191.993 311.033 192.987 311.237 193.795 311.638C194.597 312.044 195.201 312.586 195.607 313.263C196.008 313.945 196.211 314.731 196.211 315.617C196.211 316.69 195.899 317.632 195.274 318.45C194.659 319.257 193.737 319.799 192.503 320.075L196.42 326.575H193.982ZM187.836 318.596H190.816C191.909 318.596 192.737 318.325 193.295 317.783C193.847 317.242 194.128 316.523 194.128 315.617C194.128 314.69 193.847 313.971 193.295 313.471C192.753 312.961 191.925 312.7 190.816 312.7H187.836V318.596Z" fill="#4E5A65"/>
<path d="M202.498 312.679V317.888H208.165V319.554H202.498V324.908H208.832V326.575H200.457V311.013H208.832V312.679H202.498Z" fill="#4E5A65"/>
<path d="M225.856 311.033L219.981 326.575H217.647L211.793 311.033H213.939L218.835 324.429L223.71 311.033H225.856Z" fill="#4E5A65"/>
<path d="M231.22 312.679V317.888H236.887V319.554H231.22V324.908H237.553V326.575H229.178V311.013H237.553V312.679H231.22Z" fill="#4E5A65"/>
<path d="M253.953 326.575H251.911L243.765 314.2V326.575H241.724V311.013H243.765L251.911 323.367V311.013H253.953V326.575Z" fill="#4E5A65"/>
<path d="M268.065 311.033V312.679H263.836V326.575H261.815V312.679H257.544V311.033H268.065Z" fill="#4E5A65"/>
<path d="M273.713 311.033V326.575H271.671V311.033H273.713Z" fill="#4E5A65"/>
<path d="M285.33 326.721C283.882 326.721 282.564 326.388 281.372 325.721C280.189 325.044 279.252 324.096 278.559 322.888C277.861 321.679 277.517 320.32 277.517 318.804C277.517 317.278 277.861 315.908 278.559 314.7C279.252 313.492 280.189 312.554 281.372 311.888C282.564 311.211 283.882 310.867 285.33 310.867C286.773 310.867 288.09 311.211 289.288 311.888C290.481 312.554 291.418 313.492 292.101 314.7C292.778 315.898 293.122 317.263 293.122 318.804C293.122 320.336 292.778 321.7 292.101 322.908C291.418 324.106 290.481 325.044 289.288 325.721C288.09 326.388 286.773 326.721 285.33 326.721ZM285.33 324.971C286.413 324.971 287.382 324.721 288.247 324.221C289.122 323.711 289.809 322.987 290.309 322.054C290.809 321.112 291.059 320.028 291.059 318.804C291.059 317.554 290.809 316.466 290.309 315.533C289.809 314.606 289.127 313.888 288.267 313.388C287.403 312.877 286.424 312.617 285.33 312.617C284.215 312.617 283.231 312.877 282.372 313.388C281.507 313.888 280.83 314.606 280.33 315.533C279.84 316.466 279.601 317.554 279.601 318.804C279.601 320.028 279.84 321.112 280.33 322.054C280.83 322.987 281.507 323.711 282.372 324.221C283.247 324.721 284.231 324.971 285.33 324.971Z" fill="#4E5A65"/>
<path d="M309.124 326.575H307.083L298.937 314.2V326.575H296.895V311.013H298.937L307.083 323.367V311.013H309.124V326.575Z" fill="#4E5A65"/>
<path d="M329.925 323.117H323.154L321.904 326.575H319.759L325.384 311.117H327.717L333.321 326.575H331.175L329.925 323.117ZM329.342 321.471L326.55 313.617L323.738 321.471H329.342Z" fill="#4E5A65"/>
<path d="M347.266 315.575C347.266 316.882 346.818 317.966 345.933 318.825C345.058 319.674 343.709 320.096 341.891 320.096H338.912V326.575H336.87V311.033H341.891C343.641 311.033 344.974 311.461 345.891 312.304C346.808 313.153 347.266 314.242 347.266 315.575ZM341.891 318.408C343.016 318.408 343.849 318.169 344.391 317.679C344.933 317.195 345.203 316.492 345.203 315.575C345.203 313.658 344.099 312.7 341.891 312.7H338.912V318.408H341.891Z" fill="#4E5A65"/>
<path d="M361.282 315.575C361.282 316.882 360.834 317.966 359.948 318.825C359.073 319.674 357.724 320.096 355.907 320.096H352.927V326.575H350.886V311.033H355.907C357.657 311.033 358.99 311.461 359.907 312.304C360.823 313.153 361.282 314.242 361.282 315.575ZM355.907 318.408C357.032 318.408 357.865 318.169 358.407 317.679C358.948 317.195 359.219 316.492 359.219 315.575C359.219 313.658 358.115 312.7 355.907 312.7H352.927V318.408H355.907Z" fill="#4E5A65"/>
<path opacity="0.35" d="M361.667 17.8333H378.333C379.53 17.8333 380.5 18.8036 380.5 20.0002V26.0002C380.5 27.1967 379.53 28.1663 378.333 28.1663H361.667C360.471 28.1663 359.5 27.1967 359.5 26.0002V20.0002C359.5 18.8036 360.471 17.8333 361.667 17.8333Z" stroke="#545F71"/>
<path opacity="0.4" d="M382 20.9999V24.9999C382.805 24.6611 383.328 23.873 383.328 22.9999C383.328 22.1268 382.805 21.3387 382 20.9999" fill="#545F71"/>
<path d="M361 20.4333C361 19.8257 361.493 19.3333 362.1 19.3333H377.9C378.508 19.3333 379 19.8257 379 20.4333V25.5666C379 26.1741 378.508 26.6666 377.9 26.6666H362.1C361.493 26.6666 361 26.1741 361 25.5666V20.4333Z" fill="#545F71"/>
<path fill-rule="evenodd" clip-rule="evenodd" d="M346.331 19.6079C348.547 19.608 350.678 20.4594 352.284 21.9862C352.405 22.1041 352.598 22.1026 352.717 21.9829L353.873 20.8162C353.933 20.7555 353.967 20.6733 353.966 20.5877C353.966 20.5021 353.931 20.4202 353.87 20.3602C349.655 16.3207 343.005 16.3207 338.79 20.3602C338.729 20.4202 338.695 20.502 338.694 20.5876C338.694 20.6732 338.727 20.7555 338.787 20.8162L339.944 21.9829C340.063 22.1028 340.256 22.1043 340.377 21.9862C341.983 20.4593 344.115 19.6079 346.331 19.6079ZM346.331 23.4036C347.548 23.4035 348.722 23.856 349.625 24.6732C349.747 24.7892 349.939 24.7867 350.058 24.6676L351.213 23.5009C351.274 23.4397 351.307 23.3567 351.306 23.2704C351.305 23.1842 351.27 23.1018 351.208 23.0419C348.46 20.4855 344.204 20.4855 341.456 23.0419C341.394 23.1018 341.358 23.1842 341.357 23.2705C341.357 23.3568 341.39 23.4398 341.451 23.5009L342.606 24.6676C342.725 24.7867 342.917 24.7892 343.039 24.6732C343.941 23.8566 345.114 23.4041 346.331 23.4036ZM348.644 25.9574C348.645 26.0439 348.611 26.1273 348.55 26.1879L346.552 28.2036C346.494 28.2628 346.414 28.2961 346.331 28.2961C346.247 28.2961 346.168 28.2628 346.109 28.2036L344.111 26.1879C344.05 26.1272 344.016 26.0438 344.018 25.9573C344.019 25.8708 344.057 25.7889 344.121 25.7309C345.397 24.652 347.265 24.652 348.54 25.7309C348.605 25.7889 348.642 25.8709 348.644 25.9574Z" fill="#545F71"/>
<path fill-rule="evenodd" clip-rule="evenodd" d="M332.667 17.6665H331.667C331.115 17.6665 330.667 18.1142 330.667 18.6665V27.3332C330.667 27.8855 331.115 28.3332 331.667 28.3332H332.667C333.219 28.3332 333.667 27.8855 333.667 27.3332V18.6665C333.667 18.1142 333.219 17.6665 332.667 17.6665ZM327 19.9998H328C328.553 19.9998 329 20.4476 329 20.9998V27.3332C329 27.8855 328.553 28.3332 328 28.3332H327C326.448 28.3332 326 27.8855 326 27.3332V20.9998C326 20.4476 326.448 19.9998 327 19.9998ZM323.334 22.3332H322.334C321.781 22.3332 321.334 22.7809 321.334 23.3332V27.3332C321.334 27.8855 321.781 28.3332 322.334 28.3332H323.334C323.886 28.3332 324.334 27.8855 324.334 27.3332V23.3332C324.334 22.7809 323.886 22.3332 323.334 22.3332ZM318.667 24.3332H317.667C317.115 24.3332 316.667 24.7809 316.667 25.3332V27.3332C316.667 27.8855 317.115 28.3332 317.667 28.3332H318.667C319.219 28.3332 319.667 27.8855 319.667 27.3332V25.3332C319.667 24.7809 319.219 24.3332 318.667 24.3332Z" fill="#545F71"/>
<path d="M40.9428 16.9418C41.4648 16.9453 41.9726 17.0376 42.4662 17.2188C42.9634 17.3963 43.4108 17.6875 43.8085 18.0923C44.2063 18.4936 44.5223 19.0316 44.7567 19.7063C44.9911 20.381 45.1083 21.2156 45.1083 22.2099C45.1118 23.1474 45.0124 23.9854 44.81 24.7241C44.6111 25.4592 44.3252 26.0806 43.9524 26.5884C43.5795 27.0962 43.1303 27.4833 42.6047 27.7496C42.0791 28.016 41.4879 28.1491 40.8309 28.1491C40.142 28.1491 39.5312 28.0142 38.9985 27.7443C38.4694 27.4744 38.0415 27.1051 37.7148 26.6364C37.3881 26.1676 37.1875 25.6314 37.1129 25.0277H39.0571C39.1566 25.4609 39.359 25.8054 39.6644 26.0611C39.9733 26.3132 40.3622 26.4393 40.8309 26.4393C41.5873 26.4393 42.1697 26.1108 42.5781 25.4538C42.9865 24.7969 43.1907 23.8842 43.1907 22.7159H43.1161C42.9421 23.0284 42.7166 23.2983 42.4396 23.5256C42.1626 23.7493 41.8483 23.9215 41.4968 24.0423C41.1487 24.163 40.7794 24.2234 40.3888 24.2234C39.7496 24.2234 39.1743 24.0707 38.663 23.7653C38.1551 23.4599 37.7521 23.0408 37.4538 22.5082C37.159 21.9755 37.0099 21.3665 37.0063 20.6811C37.0063 19.9709 37.1697 19.3335 37.4964 18.7688C37.8267 18.2006 38.2865 17.7532 38.876 17.4265C39.4655 17.0962 40.1544 16.9347 40.9428 16.9418ZM40.9481 18.5398C40.5646 18.5398 40.2184 18.6339 39.9094 18.8221C39.604 19.0067 39.3625 19.2589 39.185 19.5785C39.011 19.8945 38.924 20.2479 38.924 20.6385C38.9275 21.0256 39.0145 21.3771 39.185 21.6932C39.359 22.0092 39.5951 22.2596 39.8934 22.4442C40.1953 22.6289 40.5397 22.7212 40.9268 22.7212C41.2144 22.7212 41.4826 22.6662 41.7311 22.5561C41.9797 22.446 42.1963 22.2933 42.381 22.098C42.5692 21.8991 42.7148 21.6737 42.8178 21.4215C42.9243 21.1694 42.9758 20.9031 42.9723 20.6225C42.9723 20.2496 42.8835 19.9052 42.7059 19.5891C42.5319 19.2731 42.2922 19.0192 41.9868 18.8274C41.685 18.6357 41.3387 18.5398 40.9481 18.5398ZM47.5912 26.6896C47.2681 26.6896 46.9911 26.576 46.7603 26.3487C46.5294 26.1179 46.4158 25.8409 46.4193 25.5178C46.4158 25.1982 46.5294 24.9247 46.7603 24.6974C46.9911 24.4702 47.2681 24.3565 47.5912 24.3565C47.9037 24.3565 48.1754 24.4702 48.4062 24.6974C48.6406 24.9247 48.7595 25.1982 48.7631 25.5178C48.7595 25.7344 48.7027 25.9315 48.5926 26.109C48.4861 26.2866 48.3441 26.4286 48.1665 26.5352C47.9925 26.6381 47.8007 26.6896 47.5912 26.6896ZM47.5912 21.283C47.2681 21.283 46.9911 21.1694 46.7603 20.9421C46.5294 20.7113 46.4158 20.4343 46.4193 20.1112C46.4158 19.7915 46.5294 19.5181 46.7603 19.2908C46.9911 19.06 47.2681 18.9446 47.5912 18.9446C47.9037 18.9446 48.1754 19.06 48.4062 19.2908C48.6406 19.5181 48.7595 19.7915 48.7631 20.1112C48.7595 20.3242 48.7027 20.5195 48.5926 20.6971C48.4861 20.8746 48.3441 21.0167 48.1665 21.1232C47.9925 21.2298 47.8007 21.283 47.5912 21.283ZM50.0356 25.9759V24.4045L54.6645 17.0909H55.9748V19.3281H55.1758L52.0597 24.266V24.3512H58.521V25.9759H50.0356ZM55.2397 28V25.4964L55.2611 24.7933V17.0909H57.1254V28H55.2397ZM64.0135 17.0909V28H62.0373V19.0138H61.9734L59.4219 20.6438V18.8327L62.1332 17.0909H64.0135Z" fill="#545F71"/>
<rect x="134" y="861" width="134" height="5" rx="2.5" fill="#545F71"/>
</g>
<defs>
<clipPath id="clip0_165_4319">
<rect width="402" height="874" fill="white"/>
</clipPath>
</defs>
</svg>
